<svg width="340" height="62" viewBox="0 0 340 62" fill="none" xmlns="http://www.w3.org/2000/svg">
<rect width="340" height="62" rx="15" fill="black"/>
<path d="M44.2292 31.2686C44.216 29.0554 45.2328 27.3875 47.286 26.1576C46.1376 24.535 44.4003 23.6427 42.1102 23.4707C39.9418 23.3019 37.5694 24.7168 36.7007 24.7168C35.7827 24.7168 33.6834 23.5291 32.0316 23.5291C28.6227 23.581 25 26.2095 25 31.5574C25 33.1377 25.2928 34.77 25.8785 36.4509C26.6617 38.6641 29.4848 44.0866 32.4298 43.999C33.9697 43.9633 35.0588 42.9216 37.0627 42.9216C39.0073 42.9216 40.0142 43.999 41.7318 43.999C44.703 43.9568 47.2564 39.0275 48 36.8079C44.0153 34.955 44.2292 31.3821 44.2292 31.2686ZM40.771 21.3711C42.4392 19.4176 42.2878 17.6393 42.2385 17C40.7644 17.0844 39.0599 17.9897 38.0893 19.1028C37.0199 20.297 36.3914 21.7735 36.5263 23.4382C38.1189 23.5583 39.5732 22.7503 40.771 21.3711Z" fill="white"/>
<path d="M116.703 37.24C118.026 37.24 119.13 36.9093 120.015 36.248C120.906 35.5813 121.53 34.6853 121.887 33.56L119.943 33.024C119.719 33.7707 119.338 34.3573 118.799 34.784C118.26 35.2107 117.562 35.424 116.703 35.424C115.546 35.424 114.674 35.0427 114.087 34.28C113.506 33.512 113.215 32.4987 113.215 31.24C113.22 29.9813 113.514 28.9707 114.095 28.208C114.676 27.44 115.546 27.056 116.703 27.056C117.562 27.056 118.26 27.2693 118.799 27.696C119.338 28.1227 119.719 28.7093 119.943 29.456L121.887 28.92C121.53 27.7893 120.906 26.8933 120.015 26.232C119.13 25.5707 118.026 25.24 116.703 25.24C115.556 25.24 114.57 25.4933 113.743 26C112.922 26.5013 112.29 27.2027 111.847 28.104C111.41 29 111.191 30.0453 111.191 31.24C111.191 32.4293 111.41 33.4747 111.847 34.376C112.29 35.2773 112.922 35.9813 113.743 36.488C114.57 36.9893 115.556 37.24 116.703 37.24ZM127.459 37.24C128.323 37.24 129.078 37.048 129.723 36.664C130.369 36.2747 130.87 35.7387 131.227 35.056C131.59 34.368 131.771 33.576 131.771 32.68C131.771 31.7893 131.593 31.0027 131.235 30.32C130.878 29.632 130.377 29.0933 129.731 28.704C129.086 28.3147 128.329 28.12 127.459 28.12C126.611 28.12 125.865 28.312 125.219 28.696C124.574 29.08 124.07 29.6133 123.707 30.296C123.345 30.9787 123.163 31.7733 123.163 32.68C123.163 33.5707 123.339 34.36 123.691 35.048C124.049 35.7307 124.55 36.2667 125.195 36.656C125.841 37.0453 126.595 37.24 127.459 37.24ZM127.459 35.432C126.718 35.432 126.155 35.184 125.771 34.688C125.393 34.1867 125.203 33.5173 125.203 32.68C125.203 31.864 125.385 31.2027 125.747 30.696C126.115 30.184 126.686 29.928 127.459 29.928C128.217 29.928 128.785 30.1787 129.163 30.68C129.542 31.176 129.731 31.8427 129.731 32.68C129.731 33.4907 129.542 34.152 129.163 34.664C128.79 35.176 128.222 35.432 127.459 35.432ZM133.518 37H135.47V32.56C135.47 31.8613 135.569 31.3227 135.766 30.944C135.969 30.56 136.225 30.296 136.534 30.152C136.849 30.0027 137.169 29.928 137.494 29.928C137.953 29.928 138.318 30.0293 138.59 30.232C138.862 30.4293 139.062 30.6827 139.19 30.992C139.323 31.296 139.409 31.6133 139.446 31.944C139.489 32.2747 139.51 32.5733 139.51 32.84V37H141.462V32.176C141.462 31.9733 141.443 31.704 141.406 31.368C141.374 31.032 141.299 30.6773 141.182 30.304C141.065 29.9307 140.883 29.5787 140.638 29.248C140.393 28.912 140.059 28.64 139.638 28.432C139.222 28.2187 138.697 28.112 138.062 28.112C137.438 28.112 136.889 28.2213 136.414 28.44C135.945 28.6533 135.553 28.9467 135.238 29.32V28.36H133.518V37ZM143.534 37H145.486V32.56C145.486 31.8613 145.584 31.3227 145.782 30.944C145.984 30.56 146.24 30.296 146.55 30.152C146.864 30.0027 147.184 29.928 147.51 29.928C147.968 29.928 148.334 30.0293 148.606 30.232C148.878 30.4293 149.078 30.6827 149.206 30.992C149.339 31.296 149.424 31.6133 149.462 31.944C149.504 32.2747 149.526 32.5733 149.526 32.84V37H151.478V32.176C151.478 31.9733 151.459 31.704 151.422 31.368C151.39 31.032 151.315 30.6773 151.198 30.304C151.08 29.9307 150.899 29.5787 150.654 29.248C150.408 28.912 150.075 28.64 149.654 28.432C149.238 28.2187 148.712 28.112 148.078 28.112C147.454 28.112 146.904 28.2213 146.43 28.44C145.96 28.6533 145.568 28.9467 145.254 29.32V28.36H143.534V37ZM157.353 37.24C158.185 37.24 158.945 37.0267 159.633 36.6C160.326 36.168 160.838 35.56 161.169 34.776L159.265 34.2C158.881 35.0213 158.206 35.432 157.241 35.432C156.585 35.432 156.067 35.2427 155.689 34.864C155.31 34.48 155.083 33.9307 155.009 33.216H161.265C161.339 32.176 161.225 31.2747 160.921 30.512C160.617 29.7493 160.15 29.16 159.521 28.744C158.897 28.328 158.137 28.12 157.241 28.12C156.393 28.12 155.646 28.312 155.001 28.696C154.355 29.0747 153.851 29.6133 153.489 30.312C153.126 31.0107 152.945 31.832 152.945 32.776C152.945 33.6507 153.129 34.424 153.497 35.096C153.87 35.768 154.387 36.2933 155.049 36.672C155.71 37.0507 156.478 37.24 157.353 37.24ZM157.321 29.808C157.918 29.808 158.377 29.9653 158.697 30.28C159.022 30.5893 159.227 31.0827 159.313 31.76H155.057C155.286 30.4587 156.041 29.808 157.321 29.808ZM166.802 37.24C167.767 37.24 168.583 37.0053 169.25 36.536C169.916 36.0613 170.383 35.384 170.65 34.504L168.682 34.064C168.532 34.5067 168.308 34.8453 168.01 35.08C167.716 35.3147 167.314 35.432 166.802 35.432C166.076 35.432 165.53 35.1787 165.162 34.672C164.799 34.1653 164.615 33.5013 164.61 32.68C164.615 31.8853 164.791 31.2293 165.138 30.712C165.49 30.1893 166.044 29.928 166.802 29.928C167.244 29.928 167.639 30.0587 167.986 30.32C168.332 30.576 168.58 30.936 168.73 31.4L170.65 30.88C170.447 30.0267 170.004 29.3547 169.322 28.864C168.639 28.368 167.807 28.12 166.826 28.12C165.951 28.12 165.196 28.3173 164.562 28.712C163.927 29.1013 163.436 29.64 163.09 30.328C162.748 31.0107 162.575 31.7947 162.57 32.68C162.575 33.5493 162.743 34.328 163.074 35.016C163.41 35.704 163.892 36.248 164.522 36.648C165.151 37.0427 165.911 37.24 166.802 37.24ZM177.317 37V35.384C176.778 35.464 176.298 35.4853 175.877 35.448C175.455 35.4107 175.149 35.232 174.957 34.912C174.855 34.7467 174.799 34.5333 174.789 34.272C174.783 34.0053 174.781 33.7013 174.781 33.36V29.872H177.317V28.36H174.781V25.96H172.861V28.36H171.293V29.872H172.861V33.472C172.861 33.968 172.866 34.4107 172.877 34.8C172.887 35.184 172.991 35.5627 173.189 35.936C173.413 36.3467 173.741 36.648 174.173 36.84C174.605 37.0267 175.093 37.1253 175.637 37.136C176.186 37.152 176.746 37.1067 177.317 37ZM184.218 37H185.722L187.674 31.056L189.634 37H191.138L193.778 28.36H191.89L190.194 33.904L188.49 28.36H186.866L185.154 33.904L183.466 28.36L181.578 28.344L184.218 37ZM195.382 27.048H197.31V25.28H195.382V27.048ZM195.382 37H197.31V28.36H195.382V37ZM204.77 37V35.384C204.231 35.464 203.751 35.4853 203.33 35.448C202.909 35.4107 202.602 35.232 202.41 34.912C202.309 34.7467 202.253 34.5333 202.242 34.272C202.237 34.0053 202.234 33.7013 202.234 33.36V29.872H204.77V28.36H202.234V25.96H200.314V28.36H198.746V29.872H200.314V33.472C200.314 33.968 200.319 34.4107 200.33 34.8C200.341 35.184 200.445 35.5627 200.642 35.936C200.866 36.3467 201.194 36.648 201.626 36.84C202.058 37.0267 202.546 37.1253 203.09 37.136C203.639 37.152 204.199 37.1067 204.77 37ZM206.612 37H208.564V32.56C208.564 31.8613 208.662 31.3227 208.86 30.944C209.062 30.56 209.318 30.296 209.628 30.152C209.942 30.0027 210.262 29.928 210.588 29.928C211.046 29.928 211.412 30.0293 211.684 30.232C211.956 30.4293 212.156 30.6827 212.284 30.992C212.417 31.296 212.502 31.6133 212.54 31.944C212.582 32.2747 212.604 32.5733 212.604 32.84V37H214.556V32.176C214.556 31.9733 214.537 31.704 214.5 31.368C214.468 31.032 214.393 30.6773 214.276 30.304C214.158 29.9307 213.977 29.5787 213.732 29.248C213.486 28.912 213.153 28.64 212.732 28.432C212.316 28.2187 211.79 28.112 211.156 28.112C210.532 28.112 209.982 28.2213 209.508 28.44C209.038 28.6533 208.646 28.9467 208.332 29.32V25.48H206.612V37ZM219.047 37H221.031L221.815 34.504H226.359L227.151 37H229.135L225.503 25.48H222.679L219.047 37ZM222.383 32.704L224.071 27.344L225.783 32.704H222.383ZM230.565 40.84H232.509V36.56C232.802 36.7733 233.133 36.9387 233.501 37.056C233.874 37.1787 234.285 37.24 234.733 37.24C235.533 37.24 236.226 37.04 236.813 36.64C237.405 36.24 237.864 35.696 238.189 35.008C238.514 34.32 238.677 33.544 238.677 32.68C238.677 31.8053 238.512 31.024 238.181 30.336C237.856 29.648 237.392 29.1067 236.789 28.712C236.186 28.3173 235.477 28.12 234.661 28.12C234.17 28.12 233.725 28.1947 233.325 28.344C232.925 28.4933 232.573 28.7067 232.269 28.984V28.36H230.565V40.84ZM234.437 35.512C233.664 35.512 233.109 35.2507 232.773 34.728C232.437 34.2 232.269 33.5173 232.269 32.68C232.269 31.8373 232.434 31.1547 232.765 30.632C233.101 30.1093 233.637 29.848 234.373 29.848C234.89 29.848 235.314 29.976 235.645 30.232C235.981 30.4827 236.229 30.824 236.389 31.256C236.554 31.6827 236.637 32.1573 236.637 32.68C236.637 33.208 236.557 33.6853 236.397 34.112C236.242 34.5387 236.002 34.88 235.677 35.136C235.352 35.3867 234.938 35.512 234.437 35.512ZM240.424 40.84H242.368V36.56C242.662 36.7733 242.992 36.9387 243.36 37.056C243.734 37.1787 244.144 37.24 244.592 37.24C245.392 37.24 246.086 37.04 246.672 36.64C247.264 36.24 247.723 35.696 248.048 35.008C248.374 34.32 248.536 33.544 248.536 32.68C248.536 31.8053 248.371 31.024 248.04 30.336C247.715 29.648 247.251 29.1067 246.648 28.712C246.046 28.3173 245.336 28.12 244.52 28.12C244.03 28.12 243.584 28.1947 243.184 28.344C242.784 28.4933 242.432 28.7067 242.128 28.984V28.36H240.424V40.84ZM244.296 35.512C243.523 35.512 242.968 35.2507 242.632 34.728C242.296 34.2 242.128 33.5173 242.128 32.68C242.128 31.8373 242.294 31.1547 242.624 30.632C242.96 30.1093 243.496 29.848 244.232 29.848C244.75 29.848 245.174 29.976 245.504 30.232C245.84 30.4827 246.088 30.824 246.248 31.256C246.414 31.6827 246.496 32.1573 246.496 32.68C246.496 33.208 246.416 33.6853 246.256 34.112C246.102 34.5387 245.862 34.88 245.536 35.136C245.211 35.3867 244.798 35.512 244.296 35.512ZM250.46 37H252.388V25.24H250.46V37ZM258.712 37.24C259.544 37.24 260.304 37.0267 260.992 36.6C261.685 36.168 262.197 35.56 262.528 34.776L260.624 34.2C260.24 35.0213 259.565 35.432 258.6 35.432C257.944 35.432 257.427 35.2427 257.048 34.864C256.669 34.48 256.443 33.9307 256.368 33.216H262.624C262.699 32.176 262.584 31.2747 262.28 30.512C261.976 29.7493 261.509 29.16 260.88 28.744C260.256 28.328 259.496 28.12 258.6 28.12C257.752 28.12 257.005 28.312 256.36 28.696C255.715 29.0747 255.211 29.6133 254.848 30.312C254.485 31.0107 254.304 31.832 254.304 32.776C254.304 33.6507 254.488 34.424 254.856 35.096C255.229 35.768 255.747 36.2933 256.408 36.672C257.069 37.0507 257.837 37.24 258.712 37.24ZM258.68 29.808C259.277 29.808 259.736 29.9653 260.056 30.28C260.381 30.5893 260.587 31.0827 260.672 31.76H256.416C256.645 30.4587 257.4 29.808 258.68 29.808Z" fill="white"/>
</svg>
