<svg width="322" height="48" viewBox="0 0 322 48" fill="none" xmlns="http://www.w3.org/2000/svg">
<rect x="1" y="1" width="320" height="46" rx="9" stroke="#00A0DC" stroke-width="2"/>
<path d="M105.98 28H107.667V24.479H110.061L111.769 28H113.68L111.818 24.178C112.392 23.9213 112.819 23.5317 113.099 23.009C113.379 22.4863 113.519 21.8843 113.519 21.203C113.519 20.3677 113.309 19.656 112.889 19.068C112.474 18.4753 111.827 18.1113 110.95 17.976C110.819 17.9527 110.677 17.9387 110.523 17.934C110.369 17.9247 110.243 17.92 110.145 17.92H105.98V28ZM107.667 22.904V19.502H110.075C110.168 19.502 110.273 19.5067 110.39 19.516C110.507 19.5253 110.614 19.5417 110.712 19.565C110.992 19.635 111.211 19.761 111.37 19.943C111.533 20.1203 111.648 20.321 111.713 20.545C111.783 20.769 111.818 20.9883 111.818 21.203C111.818 21.4177 111.783 21.637 111.713 21.861C111.648 22.085 111.533 22.2857 111.37 22.463C111.211 22.6403 110.992 22.764 110.712 22.834C110.614 22.862 110.507 22.8807 110.39 22.89C110.273 22.8993 110.168 22.904 110.075 22.904H107.667ZM118.659 28.21C119.387 28.21 120.052 28.0233 120.654 27.65C121.261 27.272 121.709 26.74 121.998 26.054L120.332 25.55C119.996 26.2687 119.406 26.628 118.561 26.628C117.987 26.628 117.535 26.4623 117.203 26.131C116.872 25.795 116.674 25.3143 116.608 24.689H122.082C122.148 23.779 122.047 22.9903 121.781 22.323C121.515 21.6557 121.107 21.14 120.556 20.776C120.01 20.412 119.345 20.23 118.561 20.23C117.819 20.23 117.166 20.398 116.601 20.734C116.037 21.0653 115.596 21.5367 115.278 22.148C114.961 22.7593 114.802 23.478 114.802 24.304C114.802 25.0693 114.963 25.746 115.285 26.334C115.612 26.922 116.065 27.3817 116.643 27.713C117.222 28.0443 117.894 28.21 118.659 28.21ZM118.631 21.707C119.154 21.707 119.555 21.8447 119.835 22.12C120.12 22.3907 120.3 22.8223 120.374 23.415H116.65C116.851 22.2763 117.511 21.707 118.631 21.707ZM126.927 28.21C127.772 28.21 128.486 28.0047 129.069 27.594C129.652 27.1787 130.061 26.586 130.294 25.816L128.572 25.431C128.441 25.8183 128.245 26.1147 127.984 26.32C127.727 26.5253 127.375 26.628 126.927 26.628C126.292 26.628 125.814 26.4063 125.492 25.963C125.175 25.5197 125.014 24.9387 125.009 24.22C125.014 23.5247 125.168 22.9507 125.471 22.498C125.779 22.0407 126.264 21.812 126.927 21.812C127.314 21.812 127.66 21.9263 127.963 22.155C128.266 22.379 128.483 22.694 128.614 23.1L130.294 22.645C130.117 21.8983 129.729 21.3103 129.132 20.881C128.535 20.447 127.807 20.23 126.948 20.23C126.183 20.23 125.522 20.4027 124.967 20.748C124.412 21.0887 123.982 21.56 123.679 22.162C123.38 22.7593 123.229 23.4453 123.224 24.22C123.229 24.9807 123.376 25.662 123.665 26.264C123.959 26.866 124.381 27.342 124.932 27.692C125.483 28.0373 126.148 28.21 126.927 28.21ZM134.929 28.21C135.657 28.21 136.322 28.0233 136.924 27.65C137.53 27.272 137.978 26.74 138.268 26.054L136.602 25.55C136.266 26.2687 135.675 26.628 134.831 26.628C134.257 26.628 133.804 26.4623 133.473 26.131C133.141 25.795 132.943 25.3143 132.878 24.689H138.352C138.417 23.779 138.317 22.9903 138.051 22.323C137.785 21.6557 137.376 21.14 136.826 20.776C136.28 20.412 135.615 20.23 134.831 20.23C134.089 20.23 133.435 20.398 132.871 20.734C132.306 21.0653 131.865 21.5367 131.548 22.148C131.23 22.7593 131.072 23.478 131.072 24.304C131.072 25.0693 131.233 25.746 131.555 26.334C131.881 26.922 132.334 27.3817 132.913 27.713C133.491 28.0443 134.163 28.21 134.929 28.21ZM134.901 21.707C135.423 21.707 135.825 21.8447 136.105 22.12C136.389 22.3907 136.569 22.8223 136.644 23.415H132.92C133.12 22.2763 133.781 21.707 134.901 21.707ZM139.695 28H141.403V24.115C141.403 23.5037 141.489 23.0323 141.662 22.701C141.839 22.365 142.063 22.134 142.334 22.008C142.609 21.8773 142.889 21.812 143.174 21.812C143.575 21.812 143.895 21.9007 144.133 22.078C144.371 22.2507 144.546 22.4723 144.658 22.743C144.774 23.009 144.849 23.2867 144.882 23.576C144.919 23.8653 144.938 24.1267 144.938 24.36V28H146.646V23.779C146.646 23.6017 146.629 23.366 146.597 23.072C146.569 22.778 146.503 22.4677 146.401 22.141C146.298 21.8143 146.139 21.5063 145.925 21.217C145.71 20.923 145.418 20.685 145.05 20.503C144.686 20.3163 144.226 20.223 143.671 20.223C143.125 20.223 142.644 20.3187 142.229 20.51C141.818 20.6967 141.475 20.9533 141.2 21.28V20.44H139.695V28ZM152.903 28V26.586C152.432 26.656 152.012 26.6747 151.643 26.642C151.275 26.6093 151.006 26.453 150.838 26.173C150.75 26.0283 150.701 25.8417 150.691 25.613C150.687 25.3797 150.684 25.1137 150.684 24.815V21.763H152.903V20.44H150.684V18.34H149.004V20.44H147.632V21.763H149.004V24.913C149.004 25.347 149.009 25.7343 149.018 26.075C149.028 26.411 149.119 26.7423 149.291 27.069C149.487 27.4283 149.774 27.692 150.152 27.86C150.53 28.0233 150.957 28.1097 151.433 28.119C151.914 28.133 152.404 28.0933 152.903 28ZM154.669 28H156.356V17.71H154.669V28ZM159.447 31.36H161.029L165.243 20.44H163.556L161.505 25.851L159.391 20.44H157.634L160.693 27.944L159.447 31.36ZM170.699 28H172.015L173.723 22.799L175.438 28H176.754L179.064 20.44H177.412L175.928 25.291L174.437 20.44H173.016L171.518 25.291L170.041 20.44L168.389 20.426L170.699 28ZM180.468 19.292H182.155V17.745H180.468V19.292ZM180.468 28H182.155V20.44H180.468V28ZM187.17 28.21C188.146 28.21 188.909 27.993 189.459 27.559C190.015 27.125 190.292 26.5277 190.292 25.767C190.292 25.179 190.106 24.717 189.732 24.381C189.364 24.045 188.727 23.7603 187.821 23.527C187.233 23.3777 186.79 23.2517 186.491 23.149C186.197 23.0463 186.001 22.9437 185.903 22.841C185.805 22.7383 185.756 22.6147 185.756 22.47C185.756 22.218 185.878 22.022 186.12 21.882C186.363 21.7373 186.683 21.6743 187.079 21.693C187.49 21.7163 187.819 21.8213 188.066 22.008C188.318 22.1947 188.468 22.449 188.514 22.771L190.236 22.463C190.143 21.7817 189.809 21.2403 189.235 20.839C188.661 20.433 187.933 20.23 187.051 20.23C186.151 20.23 185.43 20.44 184.888 20.86C184.347 21.28 184.076 21.8447 184.076 22.554C184.076 23.1187 184.265 23.5643 184.643 23.891C185.026 24.2177 185.691 24.5047 186.638 24.752C187.208 24.9013 187.628 25.0273 187.898 25.13C188.174 25.228 188.353 25.3283 188.437 25.431C188.521 25.5337 188.563 25.6713 188.563 25.844C188.563 26.124 188.451 26.3457 188.227 26.509C188.003 26.6677 187.691 26.747 187.289 26.747C186.827 26.747 186.442 26.6397 186.134 26.425C185.831 26.2103 185.637 25.9163 185.553 25.543L183.831 25.809C183.957 26.5697 184.312 27.16 184.895 27.58C185.479 28 186.237 28.21 187.17 28.21ZM191.812 28H193.52V24.115C193.52 23.5037 193.606 23.0323 193.779 22.701C193.956 22.365 194.18 22.134 194.451 22.008C194.726 21.8773 195.006 21.812 195.291 21.812C195.692 21.812 196.012 21.9007 196.25 22.078C196.488 22.2507 196.663 22.4723 196.775 22.743C196.891 23.009 196.966 23.2867 196.999 23.576C197.036 23.8653 197.055 24.1267 197.055 24.36V28H198.763V23.779C198.763 23.6017 198.746 23.366 198.714 23.072C198.686 22.778 198.62 22.4677 198.518 22.141C198.415 21.8143 198.256 21.5063 198.042 21.217C197.827 20.923 197.535 20.685 197.167 20.503C196.803 20.3163 196.343 20.223 195.788 20.223C195.242 20.223 194.761 20.3187 194.346 20.51C193.935 20.6967 193.592 20.9533 193.317 21.28V17.92H191.812V28ZM200.729 28H202.416V17.71H200.729V28ZM204.653 19.292H206.34V17.745H204.653V19.292ZM204.653 28H206.34V20.44H204.653V28ZM211.356 28.21C212.331 28.21 213.094 27.993 213.645 27.559C214.2 27.125 214.478 26.5277 214.478 25.767C214.478 25.179 214.291 24.717 213.918 24.381C213.549 24.045 212.912 23.7603 212.007 23.527C211.419 23.3777 210.976 23.2517 210.677 23.149C210.383 23.0463 210.187 22.9437 210.089 22.841C209.991 22.7383 209.942 22.6147 209.942 22.47C209.942 22.218 210.063 22.022 210.306 21.882C210.549 21.7373 210.868 21.6743 211.265 21.693C211.676 21.7163 212.005 21.8213 212.252 22.008C212.504 22.1947 212.653 22.449 212.7 22.771L214.422 22.463C214.329 21.7817 213.995 21.2403 213.421 20.839C212.847 20.433 212.119 20.23 211.237 20.23C210.336 20.23 209.615 20.44 209.074 20.86C208.533 21.28 208.262 21.8447 208.262 22.554C208.262 23.1187 208.451 23.5643 208.829 23.891C209.212 24.2177 209.877 24.5047 210.824 24.752C211.393 24.9013 211.813 25.0273 212.084 25.13C212.359 25.228 212.539 25.3283 212.623 25.431C212.707 25.5337 212.749 25.6713 212.749 25.844C212.749 26.124 212.637 26.3457 212.413 26.509C212.189 26.6677 211.876 26.747 211.475 26.747C211.013 26.747 210.628 26.6397 210.32 26.425C210.017 26.2103 209.823 25.9163 209.739 25.543L208.017 25.809C208.143 26.5697 208.498 27.16 209.081 27.58C209.664 28 210.423 28.21 211.356 28.21ZM220.442 28V26.586C219.971 26.656 219.551 26.6747 219.182 26.642C218.814 26.6093 218.545 26.453 218.377 26.173C218.289 26.0283 218.24 25.8417 218.23 25.613C218.226 25.3797 218.223 25.1137 218.223 24.815V21.763H220.442V20.44H218.223V18.34H216.543V20.44H215.171V21.763H216.543V24.913C216.543 25.347 216.548 25.7343 216.557 26.075C216.567 26.411 216.658 26.7423 216.83 27.069C217.026 27.4283 217.313 27.692 217.691 27.86C218.069 28.0233 218.496 28.1097 218.972 28.119C219.453 28.133 219.943 28.0933 220.442 28ZM225.122 28.21C225.85 28.21 226.515 28.0233 227.117 27.65C227.724 27.272 228.172 26.74 228.461 26.054L226.795 25.55C226.459 26.2687 225.869 26.628 225.024 26.628C224.45 26.628 223.997 26.4623 223.666 26.131C223.335 25.795 223.136 25.3143 223.071 24.689H228.545C228.61 23.779 228.51 22.9903 228.244 22.323C227.978 21.6557 227.57 21.14 227.019 20.776C226.473 20.412 225.808 20.23 225.024 20.23C224.282 20.23 223.629 20.398 223.064 20.734C222.499 21.0653 222.058 21.5367 221.741 22.148C221.424 22.7593 221.265 23.478 221.265 24.304C221.265 25.0693 221.426 25.746 221.748 26.334C222.075 26.922 222.527 27.3817 223.106 27.713C223.685 28.0443 224.357 28.21 225.122 28.21ZM225.094 21.707C225.617 21.707 226.018 21.8447 226.298 22.12C226.583 22.3907 226.762 22.8223 226.837 23.415H223.113C223.314 22.2763 223.974 21.707 225.094 21.707ZM233.138 28.21C233.586 28.21 233.99 28.1423 234.349 28.007C234.708 27.8717 235.023 27.6827 235.294 27.44V28H236.785V17.92H235.084V20.811C234.832 20.6243 234.55 20.482 234.237 20.384C233.924 20.2813 233.579 20.23 233.201 20.23C232.487 20.23 231.866 20.4027 231.339 20.748C230.816 21.0933 230.41 21.567 230.121 22.169C229.832 22.771 229.687 23.4547 229.687 24.22C229.687 24.976 229.829 25.655 230.114 26.257C230.399 26.859 230.8 27.335 231.318 27.685C231.836 28.035 232.443 28.21 233.138 28.21ZM233.397 26.698C232.958 26.698 232.597 26.5883 232.312 26.369C232.027 26.145 231.815 25.8463 231.675 25.473C231.54 25.0997 231.472 24.682 231.472 24.22C231.472 23.7627 231.542 23.3473 231.682 22.974C231.827 22.596 232.044 22.2973 232.333 22.078C232.627 21.854 233 21.742 233.453 21.742C234.097 21.742 234.564 21.9707 234.853 22.428C235.147 22.8853 235.294 23.4827 235.294 24.22C235.294 24.9527 235.147 25.55 234.853 26.012C234.564 26.4693 234.078 26.698 233.397 26.698Z" fill="#00A0DC"/>
<path d="M75.693 33.731L85.0726 24.429C87.3773 22.1434 87.7173 18.3833 85.5363 15.9813C84.99 15.3779 84.3254 14.8912 83.5832 14.551C82.841 14.2107 82.0366 14.024 81.2192 14.0022C80.4018 13.9804 79.5885 14.124 78.8289 14.4242C78.0693 14.7244 77.3793 15.175 76.8011 15.7484L75.0382 17.4967L73.5161 15.9872C71.2114 13.7016 67.4199 13.3644 64.9979 15.5273C64.3894 16.0691 63.8987 16.7282 63.5556 17.4642C63.2124 18.2003 63.0242 18.998 63.0022 19.8087C62.9802 20.6193 63.125 21.4259 63.4277 22.1792C63.7304 22.9325 64.1848 23.6168 64.763 24.1902L74.3834 33.731C74.557 33.9032 74.7926 34 75.0382 34C75.2838 34 75.5193 33.9032 75.693 33.731V33.731Z" stroke="#00A0DC" stroke-width="2" stroke-linecap="round" stroke-linejoin="round"/>
</svg>
