<svg width="322" height="48" viewBox="0 0 322 48" fill="none" xmlns="http://www.w3.org/2000/svg">
<rect x="1" y="1" width="320" height="46" rx="9" stroke="#00A0DC" stroke-width="2"/>
<path d="M122.711 28.21C123.402 28.21 124.048 28.0933 124.65 27.86C125.252 27.6267 125.737 27.2767 126.106 26.81C126.479 26.3433 126.666 25.7623 126.666 25.067C126.666 24.5677 126.573 24.1547 126.386 23.828C126.204 23.4967 125.968 23.2307 125.679 23.03C125.394 22.8293 125.098 22.673 124.79 22.561C124.487 22.449 124.211 22.3603 123.964 22.295L122.158 21.791C121.934 21.7303 121.71 21.6557 121.486 21.567C121.262 21.4737 121.075 21.35 120.926 21.196C120.777 21.0373 120.702 20.8343 120.702 20.587C120.702 20.3257 120.788 20.097 120.961 19.901C121.138 19.705 121.369 19.5533 121.654 19.446C121.943 19.3387 122.256 19.2897 122.592 19.299C123.11 19.313 123.577 19.4647 123.992 19.754C124.407 20.0433 124.669 20.454 124.776 20.986L126.589 20.671C126.365 19.7377 125.905 19.0167 125.21 18.508C124.515 17.9947 123.649 17.7333 122.613 17.724C121.932 17.7193 121.311 17.829 120.751 18.053C120.196 18.2723 119.752 18.6013 119.421 19.04C119.094 19.4787 118.931 20.0223 118.931 20.671C118.931 21.1143 119.003 21.4877 119.148 21.791C119.297 22.0897 119.486 22.3347 119.715 22.526C119.948 22.7173 120.193 22.869 120.45 22.981C120.711 23.093 120.954 23.1817 121.178 23.247L123.782 24.017C124.529 24.241 124.902 24.6283 124.902 25.179C124.902 25.487 124.802 25.7507 124.601 25.97C124.405 26.1847 124.148 26.348 123.831 26.46C123.514 26.572 123.175 26.628 122.816 26.628C122.209 26.628 121.673 26.4647 121.206 26.138C120.744 25.8113 120.438 25.3493 120.289 24.752L118.539 25.018C118.646 25.676 118.889 26.2453 119.267 26.726C119.65 27.202 120.135 27.5683 120.723 27.825C121.316 28.0817 121.978 28.21 122.711 28.21ZM130.295 28.21C130.897 28.21 131.408 28.112 131.828 27.916C132.253 27.7153 132.626 27.405 132.948 26.985V28H134.425V23.359C134.425 23.0323 134.411 22.7313 134.383 22.456C134.355 22.176 134.274 21.903 134.138 21.637C133.891 21.1377 133.511 20.7783 132.997 20.559C132.489 20.3397 131.898 20.23 131.226 20.23C130.34 20.23 129.633 20.4237 129.105 20.811C128.578 21.1983 128.221 21.7117 128.034 22.351L129.574 22.834C129.7 22.4467 129.922 22.1737 130.239 22.015C130.557 21.8563 130.886 21.777 131.226 21.777C131.74 21.777 132.118 21.882 132.36 22.092C132.603 22.2973 132.741 22.617 132.773 23.051C132.111 23.149 131.495 23.2447 130.925 23.338C130.361 23.4267 129.88 23.5363 129.483 23.667C128.886 23.8723 128.45 24.164 128.174 24.542C127.899 24.9153 127.761 25.3773 127.761 25.928C127.761 26.3433 127.857 26.7237 128.048 27.069C128.244 27.4143 128.531 27.692 128.909 27.902C129.287 28.1073 129.749 28.21 130.295 28.21ZM130.631 26.866C130.235 26.866 129.931 26.775 129.721 26.593C129.516 26.411 129.413 26.1823 129.413 25.907C129.413 25.6597 129.493 25.459 129.651 25.305C129.815 25.151 130.041 25.0203 130.33 24.913C130.596 24.8243 130.916 24.7473 131.289 24.682C131.663 24.612 132.15 24.5303 132.752 24.437C132.748 24.6143 132.736 24.8127 132.717 25.032C132.699 25.2467 132.654 25.4403 132.584 25.613C132.528 25.7857 132.419 25.97 132.255 26.166C132.097 26.362 131.882 26.5277 131.611 26.663C131.341 26.7983 131.014 26.866 130.631 26.866ZM138.018 28H139.712L142.456 20.44H140.762L138.865 25.921L136.961 20.44H135.274L138.018 28ZM146.876 28.21C147.604 28.21 148.269 28.0233 148.871 27.65C149.478 27.272 149.926 26.74 150.215 26.054L148.549 25.55C148.213 26.2687 147.623 26.628 146.778 26.628C146.204 26.628 145.751 26.4623 145.42 26.131C145.089 25.795 144.89 25.3143 144.825 24.689H150.299C150.364 23.779 150.264 22.9903 149.998 22.323C149.732 21.6557 149.324 21.14 148.773 20.776C148.227 20.412 147.562 20.23 146.778 20.23C146.036 20.23 145.383 20.398 144.818 20.734C144.253 21.0653 143.812 21.5367 143.495 22.148C143.178 22.7593 143.019 23.478 143.019 24.304C143.019 25.0693 143.18 25.746 143.502 26.334C143.829 26.922 144.281 27.3817 144.86 27.713C145.439 28.0443 146.111 28.21 146.876 28.21ZM146.848 21.707C147.371 21.707 147.772 21.8447 148.052 22.12C148.337 22.3907 148.516 22.8223 148.591 23.415H144.867C145.068 22.2763 145.728 21.707 146.848 21.707ZM154.892 28.21C155.34 28.21 155.744 28.1423 156.103 28.007C156.462 27.8717 156.777 27.6827 157.048 27.44V28H158.539V17.92H156.838V20.811C156.586 20.6243 156.304 20.482 155.991 20.384C155.678 20.2813 155.333 20.23 154.955 20.23C154.241 20.23 153.62 20.4027 153.093 20.748C152.57 21.0933 152.164 21.567 151.875 22.169C151.586 22.771 151.441 23.4547 151.441 24.22C151.441 24.976 151.583 25.655 151.868 26.257C152.153 26.859 152.554 27.335 153.072 27.685C153.59 28.035 154.197 28.21 154.892 28.21ZM155.151 26.698C154.712 26.698 154.351 26.5883 154.066 26.369C153.781 26.145 153.569 25.8463 153.429 25.473C153.294 25.0997 153.226 24.682 153.226 24.22C153.226 23.7627 153.296 23.3473 153.436 22.974C153.581 22.596 153.798 22.2973 154.087 22.078C154.381 21.854 154.754 21.742 155.207 21.742C155.851 21.742 156.318 21.9707 156.607 22.428C156.901 22.8853 157.048 23.4827 157.048 24.22C157.048 24.9527 156.901 25.55 156.607 26.012C156.318 26.4693 155.832 26.698 155.151 26.698ZM163.962 28H165.649V21.763H167.476V20.44H165.649V19.957C165.649 19.6957 165.726 19.4857 165.88 19.327C166.039 19.1637 166.279 19.082 166.601 19.082H167.476V17.71H166.531C166.349 17.71 166.137 17.717 165.894 17.731C165.652 17.7403 165.404 17.7917 165.152 17.885C164.905 17.9737 164.674 18.137 164.459 18.375C164.203 18.655 164.056 18.977 164.018 19.341C163.981 19.705 163.962 20.0317 163.962 20.321V20.44H162.744V21.763H163.962V28ZM171.661 28.21C172.417 28.21 173.077 28.042 173.642 27.706C174.206 27.3653 174.645 26.8963 174.958 26.299C175.275 25.697 175.434 25.004 175.434 24.22C175.434 23.4407 175.277 22.7523 174.965 22.155C174.652 21.553 174.213 21.0817 173.649 20.741C173.084 20.4003 172.421 20.23 171.661 20.23C170.919 20.23 170.265 20.398 169.701 20.734C169.136 21.07 168.695 21.5367 168.378 22.134C168.06 22.7313 167.902 23.4267 167.902 24.22C167.902 24.9993 168.056 25.69 168.364 26.292C168.676 26.8893 169.115 27.3583 169.68 27.699C170.244 28.0397 170.905 28.21 171.661 28.21ZM171.661 26.628C171.012 26.628 170.52 26.411 170.184 25.977C169.852 25.5383 169.687 24.9527 169.687 24.22C169.687 23.506 169.845 22.9273 170.163 22.484C170.485 22.036 170.984 21.812 171.661 21.812C172.323 21.812 172.82 22.0313 173.152 22.47C173.483 22.904 173.649 23.4873 173.649 24.22C173.649 24.9293 173.483 25.508 173.152 25.956C172.825 26.404 172.328 26.628 171.661 26.628ZM176.976 28H178.67V24.157C178.67 23.7183 178.749 23.3287 178.908 22.988C179.071 22.6473 179.326 22.3837 179.671 22.197C179.904 22.0617 180.166 21.9823 180.455 21.959C180.744 21.931 181.003 21.9497 181.232 22.015V20.44C180.891 20.3887 180.541 20.3957 180.182 20.461C179.823 20.5217 179.503 20.6477 179.223 20.839C179.064 20.937 178.922 21.056 178.796 21.196C178.67 21.3313 178.56 21.483 178.467 21.651V20.44H176.976V28ZM185.511 28H187.198V17.71H185.511V28ZM191.408 28.21C192.01 28.21 192.521 28.112 192.941 27.916C193.366 27.7153 193.739 27.405 194.061 26.985V28H195.538V23.359C195.538 23.0323 195.524 22.7313 195.496 22.456C195.468 22.176 195.387 21.903 195.251 21.637C195.004 21.1377 194.624 20.7783 194.11 20.559C193.602 20.3397 193.011 20.23 192.339 20.23C191.453 20.23 190.746 20.4237 190.218 20.811C189.691 21.1983 189.334 21.7117 189.147 22.351L190.687 22.834C190.813 22.4467 191.035 22.1737 191.352 22.015C191.67 21.8563 191.999 21.777 192.339 21.777C192.853 21.777 193.231 21.882 193.473 22.092C193.716 22.2973 193.854 22.617 193.886 23.051C193.224 23.149 192.608 23.2447 192.038 23.338C191.474 23.4267 190.993 23.5363 190.596 23.667C189.999 23.8723 189.563 24.164 189.287 24.542C189.012 24.9153 188.874 25.3773 188.874 25.928C188.874 26.3433 188.97 26.7237 189.161 27.069C189.357 27.4143 189.644 27.692 190.022 27.902C190.4 28.1073 190.862 28.21 191.408 28.21ZM191.744 26.866C191.348 26.866 191.044 26.775 190.834 26.593C190.629 26.411 190.526 26.1823 190.526 25.907C190.526 25.6597 190.606 25.459 190.764 25.305C190.928 25.151 191.154 25.0203 191.443 24.913C191.709 24.8243 192.029 24.7473 192.402 24.682C192.776 24.612 193.263 24.5303 193.865 24.437C193.861 24.6143 193.849 24.8127 193.83 25.032C193.812 25.2467 193.767 25.4403 193.697 25.613C193.641 25.7857 193.532 25.97 193.368 26.166C193.21 26.362 192.995 26.5277 192.724 26.663C192.454 26.7983 192.127 26.866 191.744 26.866ZM201.792 28V26.586C201.321 26.656 200.901 26.6747 200.532 26.642C200.163 26.6093 199.895 26.453 199.727 26.173C199.638 26.0283 199.589 25.8417 199.58 25.613C199.575 25.3797 199.573 25.1137 199.573 24.815V21.763H201.792V20.44H199.573V18.34H197.893V20.44H196.521V21.763H197.893V24.913C197.893 25.347 197.898 25.7343 197.907 26.075C197.916 26.411 198.007 26.7423 198.18 27.069C198.376 27.4283 198.663 27.692 199.041 27.86C199.419 28.0233 199.846 28.1097 200.322 28.119C200.803 28.133 201.293 28.0933 201.792 28ZM206.472 28.21C207.2 28.21 207.865 28.0233 208.467 27.65C209.073 27.272 209.521 26.74 209.811 26.054L208.145 25.55C207.809 26.2687 207.218 26.628 206.374 26.628C205.8 26.628 205.347 26.4623 205.016 26.131C204.684 25.795 204.486 25.3143 204.421 24.689H209.895C209.96 23.779 209.86 22.9903 209.594 22.323C209.328 21.6557 208.919 21.14 208.369 20.776C207.823 20.412 207.158 20.23 206.374 20.23C205.632 20.23 204.978 20.398 204.414 20.734C203.849 21.0653 203.408 21.5367 203.091 22.148C202.773 22.7593 202.615 23.478 202.615 24.304C202.615 25.0693 202.776 25.746 203.098 26.334C203.424 26.922 203.877 27.3817 204.456 27.713C205.034 28.0443 205.706 28.21 206.472 28.21ZM206.444 21.707C206.966 21.707 207.368 21.8447 207.648 22.12C207.932 22.3907 208.112 22.8223 208.187 23.415H204.463C204.663 22.2763 205.324 21.707 206.444 21.707ZM211.457 28H213.151V24.157C213.151 23.7183 213.23 23.3287 213.389 22.988C213.552 22.6473 213.806 22.3837 214.152 22.197C214.385 22.0617 214.646 21.9823 214.936 21.959C215.225 21.931 215.484 21.9497 215.713 22.015V20.44C215.372 20.3887 215.022 20.3957 214.663 20.461C214.303 20.5217 213.984 20.6477 213.704 20.839C213.545 20.937 213.403 21.056 213.277 21.196C213.151 21.3313 213.041 21.483 212.948 21.651V20.44H211.457V28Z" fill="#00A0DC"/>
<path d="M101 34L92.9992 29.8333L85 34V14.8333C85 14.6123 85.0937 14.4004 85.2603 14.2441C85.427 14.0878 85.6531 14 85.8889 14H100.111C100.347 14 100.573 14.0878 100.74 14.2441C100.906 14.4004 101 14.6123 101 14.8333V34Z" stroke="#00A0DC" stroke-width="2" stroke-linecap="round" stroke-linejoin="round"/>
</svg>
