<svg width="310" height="62" viewBox="0 0 310 62" fill="none" xmlns="http://www.w3.org/2000/svg">
<rect x="1" y="1" width="308" height="60" rx="30" stroke="#00A0DC" stroke-width="2"/>
<path d="M100.769 35.21C101.282 35.21 101.779 35.1447 102.26 35.014C102.745 34.8833 103.179 34.6873 103.562 34.426C103.945 34.16 104.248 33.8263 104.472 33.425C104.701 33.019 104.815 32.5453 104.815 32.004C104.815 31.4953 104.719 31.0753 104.528 30.744C104.341 30.4127 104.101 30.1467 103.807 29.946C103.518 29.7407 103.214 29.582 102.897 29.47C102.58 29.3533 102.29 29.26 102.029 29.19L100.279 28.714C100.064 28.658 99.8544 28.588 99.6491 28.504C99.4438 28.42 99.2734 28.3103 99.1381 28.175C99.0028 28.035 98.9351 27.8553 98.9351 27.636C98.9351 27.398 99.0168 27.1927 99.1801 27.02C99.3481 26.8473 99.5628 26.7167 99.8241 26.628C100.09 26.5347 100.372 26.4927 100.671 26.502C101.128 26.516 101.548 26.6513 101.931 26.908C102.314 27.1647 102.561 27.538 102.673 28.028L104.731 27.678C104.488 26.7307 104.017 26.005 103.317 25.501C102.617 24.997 101.744 24.738 100.699 24.724C100.008 24.7193 99.3784 24.8267 98.8091 25.046C98.2398 25.2653 97.7848 25.599 97.4441 26.047C97.1034 26.495 96.9331 27.0573 96.9331 27.734C96.9331 28.2147 97.0124 28.6137 97.1711 28.931C97.3344 29.2437 97.5374 29.4957 97.7801 29.687C98.0228 29.8783 98.2724 30.0253 98.5291 30.128C98.7904 30.2307 99.0191 30.31 99.2151 30.366L101.833 31.136C102.225 31.2527 102.486 31.3997 102.617 31.577C102.748 31.7497 102.813 31.9387 102.813 32.144C102.813 32.424 102.717 32.6597 102.526 32.851C102.339 33.0423 102.099 33.187 101.805 33.285C101.511 33.383 101.208 33.432 100.895 33.432C100.335 33.432 99.8358 33.2757 99.3971 32.963C98.9584 32.6503 98.6691 32.2047 98.5291 31.626L96.5411 31.92C96.6438 32.6013 96.8864 33.1893 97.2691 33.684C97.6564 34.174 98.1488 34.552 98.7461 34.818C99.3481 35.0793 100.022 35.21 100.769 35.21ZM110.89 35V33.418C110.442 33.4787 110.033 33.4973 109.665 33.474C109.296 33.4507 109.028 33.306 108.86 33.04C108.771 32.9 108.722 32.7133 108.713 32.48C108.708 32.242 108.706 31.976 108.706 31.682V28.91H110.89V27.44H108.706V25.34H106.802V27.44H105.514V28.91H106.802V31.794C106.802 32.2467 106.806 32.6527 106.816 33.012C106.825 33.3667 106.923 33.7167 107.11 34.062C107.315 34.4307 107.614 34.699 108.006 34.867C108.402 35.0303 108.85 35.1167 109.35 35.126C109.854 35.14 110.367 35.098 110.89 35ZM114.674 35.21C115.258 35.21 115.748 35.1213 116.144 34.944C116.546 34.762 116.914 34.4727 117.25 34.076V35H118.916V30.38C118.916 30.0347 118.902 29.722 118.874 29.442C118.846 29.162 118.758 28.882 118.608 28.602C118.342 28.098 117.95 27.7433 117.432 27.538C116.914 27.3327 116.322 27.23 115.654 27.23C114.744 27.23 114.026 27.426 113.498 27.818C112.971 28.21 112.612 28.7187 112.42 29.344L114.142 29.89C114.264 29.5447 114.476 29.3043 114.779 29.169C115.083 29.0337 115.374 28.966 115.654 28.966C116.102 28.966 116.436 29.05 116.655 29.218C116.875 29.3813 117.003 29.6403 117.04 29.995C116.331 30.0977 115.706 30.198 115.164 30.296C114.623 30.3893 114.17 30.5013 113.806 30.632C113.2 30.856 112.773 31.1617 112.525 31.549C112.278 31.9317 112.154 32.3867 112.154 32.914C112.154 33.334 112.25 33.719 112.441 34.069C112.637 34.4143 112.922 34.692 113.295 34.902C113.673 35.1073 114.133 35.21 114.674 35.21ZM115.08 33.712C114.754 33.712 114.495 33.6397 114.303 33.495C114.112 33.3457 114.016 33.1427 114.016 32.886C114.016 32.6947 114.077 32.5313 114.198 32.396C114.32 32.256 114.52 32.13 114.8 32.018C115.015 31.9387 115.279 31.8663 115.591 31.801C115.909 31.731 116.387 31.6423 117.026 31.535C117.022 31.717 117.008 31.9177 116.984 32.137C116.961 32.3517 116.91 32.5407 116.83 32.704C116.779 32.8113 116.681 32.9443 116.536 33.103C116.396 33.2617 116.205 33.404 115.962 33.53C115.724 33.6513 115.43 33.712 115.08 33.712ZM120.737 35H122.655V31.136C122.655 30.2587 123 29.6613 123.691 29.344C123.915 29.2367 124.164 29.1737 124.44 29.155C124.72 29.1317 124.965 29.1527 125.175 29.218V27.44C124.834 27.398 124.493 27.4073 124.153 27.468C123.812 27.524 123.504 27.636 123.229 27.804C123.051 27.9067 122.895 28.0303 122.76 28.175C122.629 28.3197 122.515 28.4807 122.417 28.658V27.44H120.737V35ZM131.042 35V33.418C130.594 33.4787 130.186 33.4973 129.817 33.474C129.448 33.4507 129.18 33.306 129.012 33.04C128.923 32.9 128.874 32.7133 128.865 32.48C128.86 32.242 128.858 31.976 128.858 31.682V28.91H131.042V27.44H128.858V25.34H126.954V27.44H125.666V28.91H126.954V31.794C126.954 32.2467 126.959 32.6527 126.968 33.012C126.977 33.3667 127.075 33.7167 127.262 34.062C127.467 34.4307 127.766 34.699 128.158 34.867C128.555 35.0303 129.003 35.1167 129.502 35.126C130.006 35.14 130.519 35.098 131.042 35ZM139.337 35.21C139.851 35.21 140.348 35.1447 140.828 35.014C141.314 34.8833 141.748 34.6873 142.13 34.426C142.513 34.16 142.816 33.8263 143.04 33.425C143.269 33.019 143.383 32.5453 143.383 32.004C143.383 31.4953 143.288 31.0753 143.096 30.744C142.91 30.4127 142.669 30.1467 142.375 29.946C142.086 29.7407 141.783 29.582 141.465 29.47C141.148 29.3533 140.859 29.26 140.597 29.19L138.847 28.714C138.633 28.658 138.423 28.588 138.217 28.504C138.012 28.42 137.842 28.3103 137.706 28.175C137.571 28.035 137.503 27.8553 137.503 27.636C137.503 27.398 137.585 27.1927 137.748 27.02C137.916 26.8473 138.131 26.7167 138.392 26.628C138.658 26.5347 138.941 26.4927 139.239 26.502C139.697 26.516 140.117 26.6513 140.499 26.908C140.882 27.1647 141.129 27.538 141.241 28.028L143.299 27.678C143.057 26.7307 142.585 26.005 141.885 25.501C141.185 24.997 140.313 24.738 139.267 24.724C138.577 24.7193 137.947 24.8267 137.377 25.046C136.808 25.2653 136.353 25.599 136.012 26.047C135.672 26.495 135.501 27.0573 135.501 27.734C135.501 28.2147 135.581 28.6137 135.739 28.931C135.903 29.2437 136.106 29.4957 136.348 29.687C136.591 29.8783 136.841 30.0253 137.097 30.128C137.359 30.2307 137.587 30.31 137.783 30.366L140.401 31.136C140.793 31.2527 141.055 31.3997 141.185 31.577C141.316 31.7497 141.381 31.9387 141.381 32.144C141.381 32.424 141.286 32.6597 141.094 32.851C140.908 33.0423 140.667 33.187 140.373 33.285C140.079 33.383 139.776 33.432 139.463 33.432C138.903 33.432 138.404 33.2757 137.965 32.963C137.527 32.6503 137.237 32.2047 137.097 31.626L135.109 31.92C135.212 32.6013 135.455 33.1893 135.837 33.684C136.225 34.174 136.717 34.552 137.314 34.818C137.916 35.0793 138.591 35.21 139.337 35.21ZM148.436 35.21C149.164 35.21 149.834 35.0187 150.445 34.636C151.061 34.2533 151.511 33.7167 151.796 33.026L149.892 32.48C149.603 33.1147 149.08 33.432 148.324 33.432C147.806 33.432 147.398 33.2873 147.099 32.998C146.805 32.7087 146.623 32.2933 146.553 31.752H151.859C151.938 30.8373 151.845 30.0417 151.579 29.365C151.313 28.6883 150.902 28.1633 150.347 27.79C149.792 27.4167 149.117 27.23 148.324 27.23C147.577 27.23 146.917 27.4003 146.343 27.741C145.769 28.077 145.319 28.5507 144.992 29.162C144.665 29.7733 144.502 30.492 144.502 31.318C144.502 32.074 144.668 32.746 144.999 33.334C145.335 33.9173 145.797 34.377 146.385 34.713C146.978 35.0443 147.661 35.21 148.436 35.21ZM148.408 28.882C148.865 28.882 149.215 28.9963 149.458 29.225C149.705 29.4537 149.864 29.8247 149.934 30.338H146.602C146.803 29.3673 147.405 28.882 148.408 28.882ZM153.58 35H155.484V24.71H153.58V35ZM157.722 35H159.626V24.71H157.722V35ZM166.628 35.21C167.211 35.21 167.701 35.1213 168.098 34.944C168.499 34.762 168.868 34.4727 169.204 34.076V35H170.87V30.38C170.87 30.0347 170.856 29.722 170.828 29.442C170.8 29.162 170.711 28.882 170.562 28.602C170.296 28.098 169.904 27.7433 169.386 27.538C168.868 27.3327 168.275 27.23 167.608 27.23C166.698 27.23 165.979 27.426 165.452 27.818C164.924 28.21 164.565 28.7187 164.374 29.344L166.096 29.89C166.217 29.5447 166.429 29.3043 166.733 29.169C167.036 29.0337 167.328 28.966 167.608 28.966C168.056 28.966 168.389 29.05 168.609 29.218C168.828 29.3813 168.956 29.6403 168.994 29.995C168.284 30.0977 167.659 30.198 167.118 30.296C166.576 30.3893 166.124 30.5013 165.76 30.632C165.153 30.856 164.726 31.1617 164.479 31.549C164.231 31.9317 164.108 32.3867 164.108 32.914C164.108 33.334 164.203 33.719 164.395 34.069C164.591 34.4143 164.875 34.692 165.249 34.902C165.627 35.1073 166.086 35.21 166.628 35.21ZM167.034 33.712C166.707 33.712 166.448 33.6397 166.257 33.495C166.065 33.3457 165.97 33.1427 165.97 32.886C165.97 32.6947 166.03 32.5313 166.152 32.396C166.273 32.256 166.474 32.13 166.754 32.018C166.968 31.9387 167.232 31.8663 167.545 31.801C167.862 31.731 168.34 31.6423 168.98 31.535C168.975 31.717 168.961 31.9177 168.938 32.137C168.914 32.3517 168.863 32.5407 168.784 32.704C168.732 32.8113 168.634 32.9443 168.49 33.103C168.35 33.2617 168.158 33.404 167.916 33.53C167.678 33.6513 167.384 33.712 167.034 33.712ZM172.676 35H174.608V31.164C174.608 30.6927 174.659 30.3147 174.762 30.03C174.869 29.7453 175.004 29.5307 175.168 29.386C175.331 29.2367 175.506 29.1363 175.693 29.085C175.879 29.0337 176.054 29.008 176.218 29.008C176.624 29.008 176.936 29.099 177.156 29.281C177.38 29.463 177.541 29.6893 177.639 29.96C177.737 30.2307 177.795 30.5013 177.814 30.772C177.832 31.038 177.842 31.2573 177.842 31.43V35H179.774V30.758C179.774 30.632 179.764 30.4313 179.746 30.156C179.727 29.8807 179.673 29.5773 179.585 29.246C179.496 28.91 179.347 28.588 179.137 28.28C178.931 27.972 178.642 27.7177 178.269 27.517C177.895 27.3163 177.412 27.216 176.82 27.216C176.274 27.216 175.798 27.307 175.392 27.489C174.986 27.671 174.645 27.9137 174.37 28.217V27.44H172.676V35ZM184.519 35.21C184.935 35.21 185.313 35.154 185.653 35.042C185.994 34.93 186.297 34.7713 186.563 34.566V35H188.243V24.92H186.325V27.692C186.092 27.5427 185.831 27.4283 185.541 27.349C185.257 27.2697 184.949 27.23 184.617 27.23C183.894 27.23 183.264 27.4027 182.727 27.748C182.191 28.0933 181.773 28.567 181.474 29.169C181.18 29.7663 181.033 30.45 181.033 31.22C181.033 31.976 181.178 32.655 181.467 33.257C181.761 33.859 182.17 34.335 182.692 34.685C183.215 35.035 183.824 35.21 184.519 35.21ZM184.827 33.516C184.417 33.516 184.081 33.4133 183.819 33.208C183.558 33.0027 183.364 32.7273 183.238 32.382C183.112 32.032 183.049 31.6447 183.049 31.22C183.049 30.8 183.115 30.4173 183.245 30.072C183.376 29.722 183.577 29.4443 183.847 29.239C184.123 29.029 184.473 28.924 184.897 28.924C185.495 28.924 185.922 29.1363 186.178 29.561C186.435 29.981 186.563 30.534 186.563 31.22C186.563 31.906 186.433 32.4613 186.171 32.886C185.915 33.306 185.467 33.516 184.827 33.516ZM193.006 35H197.472C198.503 35 199.269 34.7177 199.768 34.153C200.272 33.5837 200.524 32.8487 200.524 31.948C200.524 31.4627 200.405 31.017 200.167 30.611C199.934 30.2003 199.581 29.897 199.11 29.701C199.409 29.519 199.642 29.2623 199.81 28.931C199.978 28.5997 200.062 28.2053 200.062 27.748C200.062 27.3047 199.959 26.866 199.754 26.432C199.549 25.998 199.224 25.6387 198.781 25.354C198.338 25.0647 197.757 24.92 197.038 24.92H193.006V35ZM194.938 28.854V26.698H197.01C197.374 26.698 197.652 26.803 197.843 27.013C198.034 27.223 198.13 27.482 198.13 27.79C198.13 28.1587 198.023 28.4293 197.808 28.602C197.598 28.77 197.332 28.854 197.01 28.854H194.938ZM194.938 33.208V30.632H197.276C197.719 30.632 198.051 30.751 198.27 30.989C198.494 31.2223 198.606 31.5187 198.606 31.878C198.606 32.284 198.48 32.6083 198.228 32.851C197.981 33.089 197.663 33.208 197.276 33.208H194.938ZM204.734 35.224C205.28 35.224 205.756 35.133 206.162 34.951C206.568 34.769 206.909 34.5263 207.184 34.223V35H208.864V27.44H206.946V31.276C206.946 31.7427 206.892 32.1207 206.785 32.41C206.682 32.6947 206.549 32.9117 206.386 33.061C206.223 33.2057 206.048 33.3037 205.861 33.355C205.674 33.4063 205.499 33.432 205.336 33.432C204.93 33.432 204.615 33.341 204.391 33.159C204.172 32.977 204.013 32.7507 203.915 32.48C203.817 32.2093 203.759 31.941 203.74 31.675C203.721 31.4043 203.712 31.1827 203.712 31.01V27.44H201.78V31.682C201.78 31.808 201.789 32.0087 201.808 32.284C201.827 32.5593 201.88 32.865 201.969 33.201C202.058 33.5323 202.205 33.852 202.41 34.16C202.62 34.468 202.912 34.7223 203.285 34.923C203.658 35.1237 204.141 35.224 204.734 35.224ZM211.786 38.36H213.55L217.82 27.44H215.916L213.942 32.585L211.954 27.44H209.98L213.032 34.937L211.786 38.36Z" fill="#00A0DC"/>
</svg>
