<svg width="340" height="62" viewBox="0 0 340 62" fill="none" xmlns="http://www.w3.org/2000/svg">
<rect width="340" height="62" rx="15" fill="#3C599A"/>
<path d="M33.191 42V30.2693H30V26.0456H33.191V22.4381C33.191 19.6033 35.0759 17 39.4191 17C41.1776 17 42.478 17.1639 42.478 17.1639L42.3755 21.108C42.3755 21.108 41.0494 21.0955 39.6022 21.0955C38.036 21.0955 37.7851 21.7971 37.7851 22.9616V26.0456H42.5L42.2948 30.2693H37.7851V42H33.191Z" fill="white"/>
<path d="M106.922 37.24C108.244 37.24 109.348 36.9093 110.234 36.248C111.124 35.5813 111.748 34.6853 112.106 33.56L110.162 33.024C109.938 33.7707 109.556 34.3573 109.018 34.784C108.479 35.2107 107.78 35.424 106.922 35.424C105.764 35.424 104.892 35.0427 104.306 34.28C103.724 33.512 103.434 32.4987 103.434 31.24C103.439 29.9813 103.732 28.9707 104.314 28.208C104.895 27.44 105.764 27.056 106.922 27.056C107.78 27.056 108.479 27.2693 109.018 27.696C109.556 28.1227 109.938 28.7093 110.162 29.456L112.106 28.92C111.748 27.7893 111.124 26.8933 110.234 26.232C109.348 25.5707 108.244 25.24 106.922 25.24C105.775 25.24 104.788 25.4933 103.962 26C103.14 26.5013 102.508 27.2027 102.066 28.104C101.628 29 101.41 30.0453 101.41 31.24C101.41 32.4293 101.628 33.4747 102.066 34.376C102.508 35.2773 103.14 35.9813 103.962 36.488C104.788 36.9893 105.775 37.24 106.922 37.24ZM117.678 37.24C118.542 37.24 119.297 37.048 119.942 36.664C120.588 36.2747 121.089 35.7387 121.446 35.056C121.809 34.368 121.99 33.576 121.99 32.68C121.99 31.7893 121.812 31.0027 121.454 30.32C121.097 29.632 120.596 29.0933 119.95 28.704C119.305 28.3147 118.548 28.12 117.678 28.12C116.83 28.12 116.084 28.312 115.438 28.696C114.793 29.08 114.289 29.6133 113.926 30.296C113.564 30.9787 113.382 31.7733 113.382 32.68C113.382 33.5707 113.558 34.36 113.91 35.048C114.268 35.7307 114.769 36.2667 115.414 36.656C116.06 37.0453 116.814 37.24 117.678 37.24ZM117.678 35.432C116.937 35.432 116.374 35.184 115.99 34.688C115.612 34.1867 115.422 33.5173 115.422 32.68C115.422 31.864 115.604 31.2027 115.966 30.696C116.334 30.184 116.905 29.928 117.678 29.928C118.436 29.928 119.004 30.1787 119.382 30.68C119.761 31.176 119.95 31.8427 119.95 32.68C119.95 33.4907 119.761 34.152 119.382 34.664C119.009 35.176 118.441 35.432 117.678 35.432ZM123.737 37H125.689V32.56C125.689 31.8613 125.787 31.3227 125.985 30.944C126.187 30.56 126.443 30.296 126.753 30.152C127.067 30.0027 127.387 29.928 127.713 29.928C128.171 29.928 128.537 30.0293 128.809 30.232C129.081 30.4293 129.281 30.6827 129.409 30.992C129.542 31.296 129.627 31.6133 129.665 31.944C129.707 32.2747 129.729 32.5733 129.729 32.84V37H131.681V32.176C131.681 31.9733 131.662 31.704 131.625 31.368C131.593 31.032 131.518 30.6773 131.401 30.304C131.283 29.9307 131.102 29.5787 130.857 29.248C130.611 28.912 130.278 28.64 129.857 28.432C129.441 28.2187 128.915 28.112 128.281 28.112C127.657 28.112 127.107 28.2213 126.633 28.44C126.163 28.6533 125.771 28.9467 125.457 29.32V28.36H123.737V37ZM133.752 37H135.704V32.56C135.704 31.8613 135.803 31.3227 136 30.944C136.203 30.56 136.459 30.296 136.768 30.152C137.083 30.0027 137.403 29.928 137.728 29.928C138.187 29.928 138.552 30.0293 138.824 30.232C139.096 30.4293 139.296 30.6827 139.424 30.992C139.558 31.296 139.643 31.6133 139.68 31.944C139.723 32.2747 139.744 32.5733 139.744 32.84V37H141.696V32.176C141.696 31.9733 141.678 31.704 141.64 31.368C141.608 31.032 141.534 30.6773 141.416 30.304C141.299 29.9307 141.118 29.5787 140.872 29.248C140.627 28.912 140.294 28.64 139.872 28.432C139.456 28.2187 138.931 28.112 138.296 28.112C137.672 28.112 137.123 28.2213 136.648 28.44C136.179 28.6533 135.787 28.9467 135.472 29.32V28.36H133.752V37ZM147.571 37.24C148.403 37.24 149.163 37.0267 149.851 36.6C150.545 36.168 151.057 35.56 151.387 34.776L149.483 34.2C149.099 35.0213 148.425 35.432 147.459 35.432C146.803 35.432 146.286 35.2427 145.907 34.864C145.529 34.48 145.302 33.9307 145.227 33.216H151.483C151.558 32.176 151.443 31.2747 151.139 30.512C150.835 29.7493 150.369 29.16 149.739 28.744C149.115 28.328 148.355 28.12 147.459 28.12C146.611 28.12 145.865 28.312 145.219 28.696C144.574 29.0747 144.07 29.6133 143.707 30.312C143.345 31.0107 143.163 31.832 143.163 32.776C143.163 33.6507 143.347 34.424 143.715 35.096C144.089 35.768 144.606 36.2933 145.267 36.672C145.929 37.0507 146.697 37.24 147.571 37.24ZM147.539 29.808C148.137 29.808 148.595 29.9653 148.915 30.28C149.241 30.5893 149.446 31.0827 149.531 31.76H145.275C145.505 30.4587 146.259 29.808 147.539 29.808ZM157.02 37.24C157.986 37.24 158.802 37.0053 159.468 36.536C160.135 36.0613 160.602 35.384 160.868 34.504L158.9 34.064C158.751 34.5067 158.527 34.8453 158.228 35.08C157.935 35.3147 157.532 35.432 157.02 35.432C156.295 35.432 155.748 35.1787 155.38 34.672C155.018 34.1653 154.834 33.5013 154.828 32.68C154.834 31.8853 155.01 31.2293 155.356 30.712C155.708 30.1893 156.263 29.928 157.02 29.928C157.463 29.928 157.858 30.0587 158.204 30.32C158.551 30.576 158.799 30.936 158.948 31.4L160.868 30.88C160.666 30.0267 160.223 29.3547 159.54 28.864C158.858 28.368 158.026 28.12 157.044 28.12C156.17 28.12 155.415 28.3173 154.78 28.712C154.146 29.1013 153.655 29.64 153.308 30.328C152.967 31.0107 152.794 31.7947 152.788 32.68C152.794 33.5493 152.962 34.328 153.292 35.016C153.628 35.704 154.111 36.248 154.74 36.648C155.37 37.0427 156.13 37.24 157.02 37.24ZM167.536 37V35.384C166.997 35.464 166.517 35.4853 166.096 35.448C165.674 35.4107 165.368 35.232 165.176 34.912C165.074 34.7467 165.018 34.5333 165.008 34.272C165.002 34.0053 165 33.7013 165 33.36V29.872H167.536V28.36H165V25.96H163.08V28.36H161.512V29.872H163.08V33.472C163.08 33.968 163.085 34.4107 163.096 34.8C163.106 35.184 163.21 35.5627 163.408 35.936C163.632 36.3467 163.96 36.648 164.392 36.84C164.824 37.0267 165.312 37.1253 165.856 37.136C166.405 37.152 166.965 37.1067 167.536 37ZM174.437 37H175.941L177.893 31.056L179.853 37H181.357L183.997 28.36H182.109L180.413 33.904L178.709 28.36H177.085L175.373 33.904L173.685 28.36L171.797 28.344L174.437 37ZM185.6 27.048H187.528V25.28H185.6V27.048ZM185.6 37H187.528V28.36H185.6V37ZM194.989 37V35.384C194.45 35.464 193.97 35.4853 193.549 35.448C193.127 35.4107 192.821 35.232 192.629 34.912C192.527 34.7467 192.471 34.5333 192.461 34.272C192.455 34.0053 192.453 33.7013 192.453 33.36V29.872H194.989V28.36H192.453V25.96H190.533V28.36H188.965V29.872H190.533V33.472C190.533 33.968 190.538 34.4107 190.549 34.8C190.559 35.184 190.663 35.5627 190.861 35.936C191.085 36.3467 191.413 36.648 191.845 36.84C192.277 37.0267 192.765 37.1253 193.309 37.136C193.858 37.152 194.418 37.1067 194.989 37ZM196.831 37H198.783V32.56C198.783 31.8613 198.881 31.3227 199.079 30.944C199.281 30.56 199.537 30.296 199.847 30.152C200.161 30.0027 200.481 29.928 200.807 29.928C201.265 29.928 201.631 30.0293 201.903 30.232C202.175 30.4293 202.375 30.6827 202.503 30.992C202.636 31.296 202.721 31.6133 202.759 31.944C202.801 32.2747 202.823 32.5733 202.823 32.84V37H204.775V32.176C204.775 31.9733 204.756 31.704 204.719 31.368C204.687 31.032 204.612 30.6773 204.495 30.304C204.377 29.9307 204.196 29.5787 203.951 29.248C203.705 28.912 203.372 28.64 202.951 28.432C202.535 28.2187 202.009 28.112 201.375 28.112C200.751 28.112 200.201 28.2213 199.727 28.44C199.257 28.6533 198.865 28.9467 198.551 29.32V25.48H196.831V37ZM210.065 37H211.993V32.2H216.041V30.28H211.993V27.408H217.001V25.48H210.065V37ZM220.544 37.24C221.232 37.24 221.816 37.128 222.296 36.904C222.781 36.6747 223.208 36.32 223.576 35.84V37H225.264V31.696C225.264 31.3227 225.248 30.9787 225.216 30.664C225.184 30.344 225.09 30.032 224.936 29.728C224.653 29.1573 224.218 28.7467 223.632 28.496C223.05 28.2453 222.376 28.12 221.608 28.12C220.594 28.12 219.786 28.3413 219.184 28.784C218.581 29.2267 218.173 29.8133 217.96 30.544L219.72 31.096C219.864 30.6533 220.117 30.3413 220.48 30.16C220.842 29.9787 221.218 29.888 221.608 29.888C222.194 29.888 222.626 30.008 222.904 30.248C223.181 30.4827 223.338 30.848 223.376 31.344C222.618 31.456 221.914 31.5653 221.264 31.672C220.618 31.7733 220.069 31.8987 219.616 32.048C218.933 32.2827 218.434 32.616 218.12 33.048C217.805 33.4747 217.648 34.0027 217.648 34.632C217.648 35.1067 217.757 35.5413 217.976 35.936C218.2 36.3307 218.528 36.648 218.96 36.888C219.392 37.1227 219.92 37.24 220.544 37.24ZM220.928 35.704C220.474 35.704 220.128 35.6 219.888 35.392C219.653 35.184 219.536 34.9227 219.536 34.608C219.536 34.3253 219.626 34.096 219.808 33.92C219.994 33.744 220.253 33.5947 220.584 33.472C220.888 33.3707 221.253 33.2827 221.68 33.208C222.106 33.128 222.664 33.0347 223.352 32.928C223.346 33.1307 223.333 33.3573 223.312 33.608C223.29 33.8533 223.24 34.0747 223.16 34.272C223.096 34.4693 222.97 34.68 222.784 34.904C222.602 35.128 222.357 35.3173 222.048 35.472C221.738 35.6267 221.365 35.704 220.928 35.704ZM231.099 37.24C232.064 37.24 232.88 37.0053 233.547 36.536C234.213 36.0613 234.68 35.384 234.947 34.504L232.979 34.064C232.829 34.5067 232.605 34.8453 232.307 35.08C232.013 35.3147 231.611 35.432 231.099 35.432C230.373 35.432 229.827 35.1787 229.459 34.672C229.096 34.1653 228.912 33.5013 228.907 32.68C228.912 31.8853 229.088 31.2293 229.435 30.712C229.787 30.1893 230.341 29.928 231.099 29.928C231.541 29.928 231.936 30.0587 232.283 30.32C232.629 30.576 232.877 30.936 233.027 31.4L234.947 30.88C234.744 30.0267 234.301 29.3547 233.619 28.864C232.936 28.368 232.104 28.12 231.123 28.12C230.248 28.12 229.493 28.3173 228.859 28.712C228.224 29.1013 227.733 29.64 227.387 30.328C227.045 31.0107 226.872 31.7947 226.867 32.68C226.872 33.5493 227.04 34.328 227.371 35.016C227.707 35.704 228.189 36.248 228.819 36.648C229.448 37.0427 230.208 37.24 231.099 37.24ZM240.243 37.24C241.075 37.24 241.835 37.0267 242.523 36.6C243.217 36.168 243.729 35.56 244.059 34.776L242.155 34.2C241.771 35.0213 241.097 35.432 240.131 35.432C239.475 35.432 238.958 35.2427 238.579 34.864C238.201 34.48 237.974 33.9307 237.899 33.216H244.155C244.23 32.176 244.115 31.2747 243.811 30.512C243.507 29.7493 243.041 29.16 242.411 28.744C241.787 28.328 241.027 28.12 240.131 28.12C239.283 28.12 238.537 28.312 237.891 28.696C237.246 29.0747 236.742 29.6133 236.379 30.312C236.017 31.0107 235.835 31.832 235.835 32.776C235.835 33.6507 236.019 34.424 236.387 35.096C236.761 35.768 237.278 36.2933 237.939 36.672C238.601 37.0507 239.369 37.24 240.243 37.24ZM240.211 29.808C240.809 29.808 241.267 29.9653 241.587 30.28C241.913 30.5893 242.118 31.0827 242.203 31.76H237.947C238.177 30.4587 238.931 29.808 240.211 29.808ZM245.924 37H247.628V36.36C247.938 36.6373 248.298 36.8533 248.708 37.008C249.119 37.1627 249.58 37.24 250.092 37.24C250.892 37.24 251.586 37.04 252.172 36.64C252.764 36.24 253.223 35.696 253.548 35.008C253.874 34.32 254.036 33.544 254.036 32.68C254.036 31.8053 253.871 31.024 253.54 30.336C253.215 29.648 252.751 29.1067 252.148 28.712C251.546 28.3173 250.836 28.12 250.02 28.12C249.588 28.12 249.194 28.1787 248.836 28.296C248.479 28.408 248.156 28.5707 247.868 28.784V25.48H245.924V37ZM249.796 35.512C249.023 35.512 248.468 35.2507 248.132 34.728C247.796 34.2 247.628 33.5173 247.628 32.68C247.628 31.8373 247.794 31.1547 248.124 30.632C248.46 30.1093 248.996 29.848 249.732 29.848C250.25 29.848 250.674 29.976 251.004 30.232C251.34 30.4827 251.588 30.824 251.748 31.256C251.914 31.6827 251.996 32.1573 251.996 32.68C251.996 33.208 251.916 33.6853 251.756 34.112C251.602 34.5387 251.362 34.88 251.036 35.136C250.711 35.3867 250.298 35.512 249.796 35.512ZM259.616 37.24C260.48 37.24 261.234 37.048 261.88 36.664C262.525 36.2747 263.026 35.7387 263.384 35.056C263.746 34.368 263.928 33.576 263.928 32.68C263.928 31.7893 263.749 31.0027 263.392 30.32C263.034 29.632 262.533 29.0933 261.888 28.704C261.242 28.3147 260.485 28.12 259.616 28.12C258.768 28.12 258.021 28.312 257.376 28.696C256.73 29.08 256.226 29.6133 255.864 30.296C255.501 30.9787 255.32 31.7733 255.32 32.68C255.32 33.5707 255.496 34.36 255.848 35.048C256.205 35.7307 256.706 36.2667 257.352 36.656C257.997 37.0453 258.752 37.24 259.616 37.24ZM259.616 35.432C258.874 35.432 258.312 35.184 257.928 34.688C257.549 34.1867 257.36 33.5173 257.36 32.68C257.36 31.864 257.541 31.2027 257.904 30.696C258.272 30.184 258.842 29.928 259.616 29.928C260.373 29.928 260.941 30.1787 261.32 30.68C261.698 31.176 261.888 31.8427 261.888 32.68C261.888 33.4907 261.698 34.152 261.32 34.664C260.946 35.176 260.378 35.432 259.616 35.432ZM269.506 37.24C270.37 37.24 271.125 37.048 271.77 36.664C272.416 36.2747 272.917 35.7387 273.274 35.056C273.637 34.368 273.818 33.576 273.818 32.68C273.818 31.7893 273.64 31.0027 273.282 30.32C272.925 29.632 272.424 29.0933 271.778 28.704C271.133 28.3147 270.376 28.12 269.506 28.12C268.658 28.12 267.912 28.312 267.266 28.696C266.621 29.08 266.117 29.6133 265.754 30.296C265.392 30.9787 265.21 31.7733 265.21 32.68C265.21 33.5707 265.386 34.36 265.738 35.048C266.096 35.7307 266.597 36.2667 267.242 36.656C267.888 37.0453 268.642 37.24 269.506 37.24ZM269.506 35.432C268.765 35.432 268.202 35.184 267.818 34.688C267.44 34.1867 267.25 33.5173 267.25 32.68C267.25 31.864 267.432 31.2027 267.794 30.696C268.162 30.184 268.733 29.928 269.506 29.928C270.264 29.928 270.832 30.1787 271.21 30.68C271.589 31.176 271.778 31.8427 271.778 32.68C271.778 33.4907 271.589 34.152 271.21 34.664C270.837 35.176 270.269 35.432 269.506 35.432ZM275.565 37H277.533V32.84L280.837 37H283.389L279.749 32.68L283.101 28.36H280.693L277.533 32.52V25.48H275.581L275.565 37Z" fill="white"/>
</svg>
