<svg width="340" height="62" viewBox="0 0 340 62" fill="none" xmlns="http://www.w3.org/2000/svg">
<rect width="340" height="62" rx="15" fill="#E1473D"/>
<path d="M48.7705 28.2248H36.7544V33.0619H43.6189C43.3229 34.6254 42.4249 35.9479 41.0713 36.8339C39.9272 37.5831 38.4672 38.0261 36.7511 38.0261C33.4286 38.0261 30.6183 35.8274 29.6139 32.873C29.3612 32.1238 29.2148 31.3225 29.2148 30.4984C29.2148 29.6743 29.3612 28.873 29.6139 28.1238C30.6217 25.1726 33.432 22.9739 36.7544 22.9739C38.6268 22.9739 40.3064 23.6059 41.63 24.8436L45.2884 21.2573C43.0768 19.2378 40.1933 18 36.7544 18C31.7691 18 27.4555 20.8013 25.3569 24.886C24.4922 26.5733 24 28.4821 24 30.5016C24 32.5212 24.4922 34.4267 25.3569 36.114C27.4555 40.1987 31.7691 43 36.7544 43C40.1999 43 43.0867 41.8795 45.1953 39.9707C47.6065 37.7948 49 34.5896 49 30.7818C49 29.8958 48.9202 29.0456 48.7705 28.2248Z" fill="white"/>
<path d="M109.25 37.24C110.572 37.24 111.676 36.9093 112.562 36.248C113.452 35.5813 114.076 34.6853 114.434 33.56L112.49 33.024C112.266 33.7707 111.884 34.3573 111.346 34.784C110.807 35.2107 110.108 35.424 109.25 35.424C108.092 35.424 107.22 35.0427 106.634 34.28C106.052 33.512 105.762 32.4987 105.762 31.24C105.767 29.9813 106.06 28.9707 106.642 28.208C107.223 27.44 108.092 27.056 109.25 27.056C110.108 27.056 110.807 27.2693 111.346 27.696C111.884 28.1227 112.266 28.7093 112.49 29.456L114.434 28.92C114.076 27.7893 113.452 26.8933 112.562 26.232C111.676 25.5707 110.572 25.24 109.25 25.24C108.103 25.24 107.116 25.4933 106.29 26C105.468 26.5013 104.836 27.2027 104.394 28.104C103.956 29 103.738 30.0453 103.738 31.24C103.738 32.4293 103.956 33.4747 104.394 34.376C104.836 35.2773 105.468 35.9813 106.29 36.488C107.116 36.9893 108.103 37.24 109.25 37.24ZM120.006 37.24C120.87 37.24 121.625 37.048 122.27 36.664C122.916 36.2747 123.417 35.7387 123.774 35.056C124.137 34.368 124.318 33.576 124.318 32.68C124.318 31.7893 124.14 31.0027 123.782 30.32C123.425 29.632 122.924 29.0933 122.278 28.704C121.633 28.3147 120.876 28.12 120.006 28.12C119.158 28.12 118.412 28.312 117.766 28.696C117.121 29.08 116.617 29.6133 116.254 30.296C115.892 30.9787 115.71 31.7733 115.71 32.68C115.71 33.5707 115.886 34.36 116.238 35.048C116.596 35.7307 117.097 36.2667 117.742 36.656C118.388 37.0453 119.142 37.24 120.006 37.24ZM120.006 35.432C119.265 35.432 118.702 35.184 118.318 34.688C117.94 34.1867 117.75 33.5173 117.75 32.68C117.75 31.864 117.932 31.2027 118.294 30.696C118.662 30.184 119.233 29.928 120.006 29.928C120.764 29.928 121.332 30.1787 121.71 30.68C122.089 31.176 122.278 31.8427 122.278 32.68C122.278 33.4907 122.089 34.152 121.71 34.664C121.337 35.176 120.769 35.432 120.006 35.432ZM126.065 37H128.017V32.56C128.017 31.8613 128.116 31.3227 128.313 30.944C128.516 30.56 128.772 30.296 129.081 30.152C129.396 30.0027 129.716 29.928 130.041 29.928C130.5 29.928 130.865 30.0293 131.137 30.232C131.409 30.4293 131.609 30.6827 131.737 30.992C131.87 31.296 131.956 31.6133 131.993 31.944C132.036 32.2747 132.057 32.5733 132.057 32.84V37H134.009V32.176C134.009 31.9733 133.99 31.704 133.953 31.368C133.921 31.032 133.846 30.6773 133.729 30.304C133.612 29.9307 133.43 29.5787 133.185 29.248C132.94 28.912 132.606 28.64 132.185 28.432C131.769 28.2187 131.244 28.112 130.609 28.112C129.985 28.112 129.436 28.2213 128.961 28.44C128.492 28.6533 128.1 28.9467 127.785 29.32V28.36H126.065V37ZM136.081 37H138.033V32.56C138.033 31.8613 138.131 31.3227 138.329 30.944C138.531 30.56 138.787 30.296 139.097 30.152C139.411 30.0027 139.731 29.928 140.057 29.928C140.515 29.928 140.881 30.0293 141.153 30.232C141.425 30.4293 141.625 30.6827 141.753 30.992C141.886 31.296 141.971 31.6133 142.009 31.944C142.051 32.2747 142.073 32.5733 142.073 32.84V37H144.025V32.176C144.025 31.9733 144.006 31.704 143.969 31.368C143.937 31.032 143.862 30.6773 143.745 30.304C143.627 29.9307 143.446 29.5787 143.201 29.248C142.955 28.912 142.622 28.64 142.201 28.432C141.785 28.2187 141.259 28.112 140.625 28.112C140.001 28.112 139.451 28.2213 138.977 28.44C138.507 28.6533 138.115 28.9467 137.801 29.32V28.36H136.081V37ZM149.9 37.24C150.732 37.24 151.492 37.0267 152.18 36.6C152.873 36.168 153.385 35.56 153.716 34.776L151.812 34.2C151.428 35.0213 150.753 35.432 149.788 35.432C149.132 35.432 148.614 35.2427 148.236 34.864C147.857 34.48 147.63 33.9307 147.556 33.216H153.812C153.886 32.176 153.772 31.2747 153.468 30.512C153.164 29.7493 152.697 29.16 152.068 28.744C151.444 28.328 150.684 28.12 149.788 28.12C148.94 28.12 148.193 28.312 147.548 28.696C146.902 29.0747 146.398 29.6133 146.036 30.312C145.673 31.0107 145.492 31.832 145.492 32.776C145.492 33.6507 145.676 34.424 146.044 35.096C146.417 35.768 146.934 36.2933 147.596 36.672C148.257 37.0507 149.025 37.24 149.9 37.24ZM149.868 29.808C150.465 29.808 150.924 29.9653 151.244 30.28C151.569 30.5893 151.774 31.0827 151.86 31.76H147.604C147.833 30.4587 148.588 29.808 149.868 29.808ZM159.349 37.24C160.314 37.24 161.13 37.0053 161.797 36.536C162.463 36.0613 162.93 35.384 163.197 34.504L161.229 34.064C161.079 34.5067 160.855 34.8453 160.557 35.08C160.263 35.3147 159.861 35.432 159.349 35.432C158.623 35.432 158.077 35.1787 157.709 34.672C157.346 34.1653 157.162 33.5013 157.157 32.68C157.162 31.8853 157.338 31.2293 157.685 30.712C158.037 30.1893 158.591 29.928 159.349 29.928C159.791 29.928 160.186 30.0587 160.533 30.32C160.879 30.576 161.127 30.936 161.277 31.4L163.197 30.88C162.994 30.0267 162.551 29.3547 161.869 28.864C161.186 28.368 160.354 28.12 159.373 28.12C158.498 28.12 157.743 28.3173 157.109 28.712C156.474 29.1013 155.983 29.64 155.637 30.328C155.295 31.0107 155.122 31.7947 155.117 32.68C155.122 33.5493 155.29 34.328 155.621 35.016C155.957 35.704 156.439 36.248 157.069 36.648C157.698 37.0427 158.458 37.24 159.349 37.24ZM169.864 37V35.384C169.325 35.464 168.845 35.4853 168.424 35.448C168.002 35.4107 167.696 35.232 167.504 34.912C167.402 34.7467 167.346 34.5333 167.336 34.272C167.33 34.0053 167.328 33.7013 167.328 33.36V29.872H169.864V28.36H167.328V25.96H165.408V28.36H163.84V29.872H165.408V33.472C165.408 33.968 165.413 34.4107 165.424 34.8C165.434 35.184 165.538 35.5627 165.736 35.936C165.96 36.3467 166.288 36.648 166.72 36.84C167.152 37.0267 167.64 37.1253 168.184 37.136C168.733 37.152 169.293 37.1067 169.864 37ZM176.765 37H178.269L180.221 31.056L182.181 37H183.685L186.325 28.36H184.437L182.741 33.904L181.037 28.36H179.413L177.701 33.904L176.013 28.36L174.125 28.344L176.765 37ZM187.928 27.048H189.856V25.28H187.928V27.048ZM187.928 37H189.856V28.36H187.928V37ZM197.317 37V35.384C196.778 35.464 196.298 35.4853 195.877 35.448C195.455 35.4107 195.149 35.232 194.957 34.912C194.855 34.7467 194.799 34.5333 194.789 34.272C194.783 34.0053 194.781 33.7013 194.781 33.36V29.872H197.317V28.36H194.781V25.96H192.861V28.36H191.293V29.872H192.861V33.472C192.861 33.968 192.866 34.4107 192.877 34.8C192.887 35.184 192.991 35.5627 193.189 35.936C193.413 36.3467 193.741 36.648 194.173 36.84C194.605 37.0267 195.093 37.1253 195.637 37.136C196.186 37.152 196.746 37.1067 197.317 37ZM199.159 37H201.111V32.56C201.111 31.8613 201.209 31.3227 201.407 30.944C201.609 30.56 201.865 30.296 202.175 30.152C202.489 30.0027 202.809 29.928 203.135 29.928C203.593 29.928 203.959 30.0293 204.231 30.232C204.503 30.4293 204.703 30.6827 204.831 30.992C204.964 31.296 205.049 31.6133 205.087 31.944C205.129 32.2747 205.151 32.5733 205.151 32.84V37H207.103V32.176C207.103 31.9733 207.084 31.704 207.047 31.368C207.015 31.032 206.94 30.6773 206.823 30.304C206.705 29.9307 206.524 29.5787 206.279 29.248C206.033 28.912 205.7 28.64 205.279 28.432C204.863 28.2187 204.337 28.112 203.703 28.112C203.079 28.112 202.529 28.2213 202.055 28.44C201.585 28.6533 201.193 28.9467 200.879 29.32V25.48H199.159V37ZM217.145 37.24C218.26 37.24 219.217 37 220.017 36.52C220.817 36.0347 221.431 35.3707 221.857 34.528C222.289 33.6853 222.505 32.72 222.505 31.632C222.505 31.6 222.503 31.5013 222.497 31.336C222.492 31.1707 222.484 31.0453 222.473 30.96H218.393V32.472H220.425C220.276 33.464 219.929 34.208 219.385 34.704C218.841 35.1947 218.135 35.4347 217.265 35.424C216.108 35.408 215.239 35.0213 214.657 34.264C214.076 33.5067 213.788 32.4987 213.793 31.24C213.799 30.3973 213.929 29.6613 214.185 29.032C214.441 28.4027 214.825 27.9147 215.337 27.568C215.849 27.2213 216.492 27.0533 217.265 27.064C218.028 27.0693 218.657 27.2747 219.153 27.68C219.655 28.0853 220.015 28.6293 220.233 29.312L222.201 29C221.908 27.816 221.345 26.8933 220.513 26.232C219.687 25.5707 218.564 25.24 217.145 25.24C216.121 25.24 215.201 25.4773 214.385 25.952C213.575 26.4267 212.932 27.112 212.457 28.008C211.988 28.904 211.753 29.9813 211.753 31.24C211.753 32.52 211.993 33.608 212.473 34.504C212.959 35.3947 213.609 36.0747 214.425 36.544C215.241 37.008 216.148 37.24 217.145 37.24ZM227.928 37.24C228.792 37.24 229.547 37.048 230.192 36.664C230.838 36.2747 231.339 35.7387 231.696 35.056C232.059 34.368 232.24 33.576 232.24 32.68C232.24 31.7893 232.062 31.0027 231.704 30.32C231.347 29.632 230.846 29.0933 230.2 28.704C229.555 28.3147 228.798 28.12 227.928 28.12C227.08 28.12 226.334 28.312 225.688 28.696C225.043 29.08 224.539 29.6133 224.176 30.296C223.814 30.9787 223.632 31.7733 223.632 32.68C223.632 33.5707 223.808 34.36 224.16 35.048C224.518 35.7307 225.019 36.2667 225.664 36.656C226.31 37.0453 227.064 37.24 227.928 37.24ZM227.928 35.432C227.187 35.432 226.624 35.184 226.24 34.688C225.862 34.1867 225.672 33.5173 225.672 32.68C225.672 31.864 225.854 31.2027 226.216 30.696C226.584 30.184 227.155 29.928 227.928 29.928C228.686 29.928 229.254 30.1787 229.632 30.68C230.011 31.176 230.2 31.8427 230.2 32.68C230.2 33.4907 230.011 34.152 229.632 34.664C229.259 35.176 228.691 35.432 227.928 35.432ZM237.819 37.24C238.683 37.24 239.437 37.048 240.083 36.664C240.728 36.2747 241.229 35.7387 241.587 35.056C241.949 34.368 242.131 33.576 242.131 32.68C242.131 31.7893 241.952 31.0027 241.595 30.32C241.237 29.632 240.736 29.0933 240.091 28.704C239.445 28.3147 238.688 28.12 237.819 28.12C236.971 28.12 236.224 28.312 235.579 28.696C234.933 29.08 234.429 29.6133 234.067 30.296C233.704 30.9787 233.523 31.7733 233.523 32.68C233.523 33.5707 233.699 34.36 234.051 35.048C234.408 35.7307 234.909 36.2667 235.555 36.656C236.2 37.0453 236.955 37.24 237.819 37.24ZM237.819 35.432C237.077 35.432 236.515 35.184 236.131 34.688C235.752 34.1867 235.563 33.5173 235.563 32.68C235.563 31.864 235.744 31.2027 236.107 30.696C236.475 30.184 237.045 29.928 237.819 29.928C238.576 29.928 239.144 30.1787 239.523 30.68C239.901 31.176 240.091 31.8427 240.091 32.68C240.091 33.4907 239.901 34.152 239.523 34.664C239.149 35.176 238.581 35.432 237.819 35.432ZM247.357 37.24C247.805 37.24 248.213 37.1787 248.581 37.056C248.955 36.9387 249.288 36.7733 249.581 36.56V37.384C249.592 37.9973 249.403 38.4613 249.013 38.776C248.629 39.0907 248.136 39.248 247.533 39.248C247.192 39.248 246.869 39.1707 246.565 39.016C246.261 38.8613 246.029 38.6293 245.869 38.32L244.093 39.2C244.429 39.7867 244.904 40.2453 245.517 40.576C246.136 40.912 246.805 41.08 247.525 41.08C248.501 41.08 249.339 40.88 250.037 40.48C250.741 40.0853 251.192 39.4693 251.389 38.632C251.432 38.44 251.461 38.2453 251.477 38.048C251.499 37.8507 251.509 37.64 251.509 37.416V28.36H249.821V28.984C249.517 28.7067 249.165 28.4933 248.765 28.344C248.365 28.1947 247.92 28.12 247.429 28.12C246.613 28.12 245.904 28.3173 245.301 28.712C244.704 29.1067 244.24 29.648 243.909 30.336C243.579 31.024 243.413 31.8053 243.413 32.68C243.413 33.544 243.576 34.32 243.901 35.008C244.227 35.696 244.685 36.24 245.277 36.64C245.869 37.04 246.563 37.24 247.357 37.24ZM247.653 35.512C247.152 35.512 246.739 35.3867 246.413 35.136C246.088 34.88 245.845 34.5387 245.685 34.112C245.531 33.6853 245.453 33.208 245.453 32.68C245.453 32.1573 245.533 31.6827 245.693 31.256C245.859 30.824 246.107 30.4827 246.437 30.232C246.773 29.976 247.2 29.848 247.717 29.848C248.453 29.848 248.987 30.1093 249.317 30.632C249.653 31.1547 249.821 31.8373 249.821 32.68C249.821 33.5173 249.653 34.2 249.317 34.728C248.987 35.2507 248.432 35.512 247.653 35.512ZM253.913 37H255.841V25.24H253.913V37ZM262.165 37.24C262.997 37.24 263.757 37.0267 264.445 36.6C265.139 36.168 265.651 35.56 265.981 34.776L264.077 34.2C263.693 35.0213 263.019 35.432 262.053 35.432C261.397 35.432 260.88 35.2427 260.501 34.864C260.123 34.48 259.896 33.9307 259.821 33.216H266.077C266.152 32.176 266.037 31.2747 265.733 30.512C265.429 29.7493 264.963 29.16 264.333 28.744C263.709 28.328 262.949 28.12 262.053 28.12C261.205 28.12 260.459 28.312 259.813 28.696C259.168 29.0747 258.664 29.6133 258.301 30.312C257.939 31.0107 257.757 31.832 257.757 32.776C257.757 33.6507 257.941 34.424 258.309 35.096C258.683 35.768 259.2 36.2933 259.861 36.672C260.523 37.0507 261.291 37.24 262.165 37.24ZM262.133 29.808C262.731 29.808 263.189 29.9653 263.509 30.28C263.835 30.5893 264.04 31.0827 264.125 31.76H259.869C260.099 30.4587 260.853 29.808 262.133 29.808Z" fill="white"/>
</svg>
