<svg width="16" height="16" viewBox="0 0 16 16" fill="none" xmlns="http://www.w3.org/2000/svg">
<path d="M13.6183 4.27676C14.2764 4.27676 14.8098 3.7433 14.8098 3.08523C14.8098 2.42716 14.2764 1.89369 13.6183 1.89369C12.9602 1.89369 12.4268 2.42716 12.4268 3.08523C12.4268 3.7433 12.9602 4.27676 13.6183 4.27676Z" stroke="#373737" stroke-linecap="round" stroke-linejoin="round"/>
<path d="M13.6182 1.89365V1" stroke="#373737" stroke-linecap="round" stroke-linejoin="round"/>
<path d="M12.5874 2.48941L11.8135 2.04259" stroke="#373737" stroke-linecap="round" stroke-linejoin="round"/>
<path d="M12.5874 3.68097L11.8135 4.1278" stroke="#373737" stroke-linecap="round" stroke-linejoin="round"/>
<path d="M13.6182 4.27676V5.17042" stroke="#373737" stroke-linecap="round" stroke-linejoin="round"/>
<path d="M14.6504 3.68097L15.4243 4.1278" stroke="#373737" stroke-linecap="round" stroke-linejoin="round"/>
<path d="M14.6504 2.48941L15.4243 2.04259" stroke="#373737" stroke-linecap="round" stroke-linejoin="round"/>
<path d="M1.03223 14.9999C1.76469 13.732 2.8179 12.6793 4.08605 11.9474C5.35419 11.2155 6.79262 10.8302 8.25682 10.8302C9.72102 10.8302 11.1594 11.2155 12.4276 11.9475C13.6957 12.6794 14.7489 13.7322 15.4813 15" stroke="#373737" stroke-linecap="round" stroke-linejoin="round"/>
<path d="M12.6219 7.97865C12.2653 8.7901 11.6894 9.48599 10.959 9.98808C10.2286 10.4902 9.37264 10.7785 8.48732 10.8208C7.60199 10.863 6.72243 10.6575 5.94754 10.2272C5.17264 9.79695 4.53314 9.15905 4.10092 8.38524C3.66871 7.61143 3.46094 6.73239 3.50095 5.84696C3.54097 4.96153 3.82719 4.10481 4.32745 3.37315C4.8277 2.64148 5.52214 2.06387 6.33268 1.70526C7.14323 1.34665 8.03775 1.22126 8.91565 1.3432" stroke="#373737" stroke-linecap="round" stroke-linejoin="round"/>
</svg>
