<svg width="25" height="25" viewBox="0 0 25 25" fill="none" xmlns="http://www.w3.org/2000/svg">
<path d="M11.4513 5.0876L13.9262 2.61272C14.4368 2.10161 15.0431 1.69611 15.7105 1.4194C16.3779 1.14268 17.0933 1.00017 17.8158 1C18.5383 0.999832 19.2537 1.14201 19.9212 1.41842C20.5887 1.69482 21.1953 2.10004 21.7061 2.61091C22.217 3.12179 22.6222 3.72831 22.8986 4.39583C23.175 5.06335 23.3172 5.77879 23.3171 6.50128C23.3169 7.22377 23.1744 7.93914 22.8977 8.60653C22.6209 9.27393 22.2154 9.88026 21.7043 10.3909L18.1688 13.9264C17.6581 14.4372 17.0518 14.8423 16.3845 15.1187C15.7172 15.3951 15.002 15.5373 14.2797 15.5373C13.5574 15.5373 12.8422 15.3951 12.175 15.1187C11.5077 14.8423 10.9013 14.4372 10.3906 13.9264" stroke="#0077B5" stroke-width="2" stroke-linecap="round" stroke-linejoin="round"/>
<path d="M12.8658 19.2297L10.3909 21.7046C9.88026 22.2157 9.27393 22.6212 8.60653 22.8979C7.93914 23.1746 7.22377 23.3171 6.50128 23.3173C5.77879 23.3175 5.06335 23.1753 4.39583 22.8989C3.72831 22.6225 3.12179 22.2173 2.61091 21.7064C2.10004 21.1955 1.69482 20.589 1.41842 19.9215C1.14201 19.254 0.999832 18.5385 1 17.816C1.00017 17.0935 1.14268 16.3782 1.4194 15.7108C1.69611 15.0434 2.10161 14.4371 2.61272 13.9264L6.14826 10.3909C6.65898 9.88016 7.2653 9.47503 7.93259 9.19863C8.59988 8.92223 9.31507 8.77997 10.0373 8.77997C10.7596 8.77997 11.4748 8.92223 12.1421 9.19863C12.8094 9.47503 13.4157 9.88016 13.9264 10.3909" stroke="#0077B5" stroke-width="2" stroke-linecap="round" stroke-linejoin="round"/>
</svg>
