<svg width="16" height="16" viewBox="0 0 16 16" fill="none" xmlns="http://www.w3.org/2000/svg">
<path d="M4.13083 1H13.5272C13.6738 1 13.8144 1.05823 13.918 1.16189C14.0217 1.26555 14.0799 1.40613 14.0799 1.55273V8.73818C14.0799 8.88478 14.0217 9.02536 13.918 9.12902C13.8144 9.23268 13.6738 9.29091 13.5272 9.29091H2.47265C2.32606 9.29091 2.18547 9.23268 2.08181 9.12902C1.97816 9.02536 1.91992 8.88478 1.91992 8.73818V3.21091C1.91992 2.62454 2.15286 2.06219 2.56748 1.64756C2.98211 1.23293 3.54446 1 4.13083 1V1Z" stroke="black" stroke-linecap="round" stroke-linejoin="round"/>
<path d="M6.89452 9.29089L6.3418 13.16C6.3418 13.5998 6.5165 14.0215 6.82747 14.3325C7.13844 14.6435 7.5602 14.8182 7.99998 14.8182C8.43976 14.8182 8.86152 14.6435 9.17249 14.3325C9.48346 14.0215 9.65816 13.5998 9.65816 13.16L9.10543 9.29089" stroke="black" stroke-linecap="round" stroke-linejoin="round"/>
<path d="M1.91992 6.52725H14.0799" stroke="black" stroke-linecap="round" stroke-linejoin="round"/>
<path d="M10.7637 1V3.76364" stroke="black" stroke-linecap="round" stroke-linejoin="round"/>
</svg>
