<svg width="19" height="23" viewBox="0 0 19 23" fill="none" xmlns="http://www.w3.org/2000/svg">
<path d="M13.1427 6.7259L4.71243 15.6372C4.40879 15.9529 4.23821 16.3811 4.23821 16.8276C4.23821 17.2741 4.40879 17.7023 4.71243 18.0181C5.01607 18.3338 5.4279 18.5112 5.85731 18.5112C6.28673 18.5112 6.69855 18.3338 7.00219 18.0181L17.0516 7.42324C17.3522 7.11058 17.5908 6.7394 17.7535 6.33089C17.9162 5.92237 18 5.48453 18 5.04236C18 4.60019 17.9162 4.16235 17.7535 3.75384C17.5908 3.34533 17.3522 2.97415 17.0515 2.66149C16.7509 2.34882 16.3939 2.10081 16.001 1.9316C15.6081 1.76238 15.187 1.67529 14.7618 1.67529C14.3365 1.67529 13.9155 1.76238 13.5226 1.9316C13.1297 2.10081 12.7727 2.34882 12.472 2.66149L2.42267 13.2563C1.51175 14.2035 1 15.4881 1 16.8276C1 18.1671 1.51175 19.4518 2.42267 20.3989C3.3336 21.3461 4.56907 21.8782 5.85731 21.8782C7.14555 21.8782 8.38103 21.3461 9.29195 20.3989L17.5952 11.7765" stroke="#0077B5" stroke-width="1.4" stroke-linecap="round" stroke-linejoin="round"/>
</svg>
