<svg width="32" height="32" viewBox="0 0 32 32" fill="none" xmlns="http://www.w3.org/2000/svg">
<path d="M27.001 8.5H5.00098C4.44869 8.5 4.00098 8.94772 4.00098 9.5V25.5C4.00098 26.0523 4.44869 26.5 5.00098 26.5H27.001C27.5533 26.5 28.001 26.0523 28.001 25.5V9.5C28.001 8.94772 27.5533 8.5 27.001 8.5Z" stroke="#8FD5F0" stroke-width="3" stroke-linecap="round" stroke-linejoin="round"/>
<path d="M21 12.5V6C21 5.46957 20.7893 4.96086 20.4142 4.58579C20.0391 4.21071 19.5304 4 19 4H13C12.4696 4 11.9609 4.21071 11.5858 4.58579C11.2107 4.96086 11 5.46957 11 6V12.5" stroke="#8FD5F0" stroke-width="3" stroke-linecap="round" stroke-linejoin="round"/>
</svg>
