<svg width="20" height="15" viewBox="0 0 20 15" fill="none" xmlns="http://www.w3.org/2000/svg">
<path d="M7.08374 5.13887H15.5097" stroke="#373737" stroke-width="1.3" stroke-linecap="round" stroke-linejoin="round"/>
<path d="M7.08374 7.73165H15.5097" stroke="#373737" stroke-width="1.3" stroke-linecap="round" stroke-linejoin="round"/>
<path d="M7.08374 10.3241H15.5097" stroke="#373737" stroke-width="1.3" stroke-linecap="round" stroke-linejoin="round"/>
<path d="M2.54633 14.213C2.89013 14.213 3.21985 14.0764 3.46295 13.8333C3.70605 13.5902 3.84263 13.2605 3.84263 12.9167V1.89815C3.84263 1.72625 3.91091 1.56139 4.03247 1.43984C4.15402 1.31829 4.31888 1.25 4.49078 1.25H18.1019C18.2738 1.25 18.4387 1.31829 18.5602 1.43984C18.6818 1.56139 18.7501 1.72625 18.7501 1.89815V12.9167C18.7501 13.2605 18.6135 13.5902 18.3704 13.8333C18.1273 14.0764 17.7976 14.213 17.4538 14.213H2.54633Z" stroke="#373737" stroke-width="1.3" stroke-linecap="round" stroke-linejoin="round"/>
<path d="M2.5463 14.2129C2.2025 14.2129 1.87278 14.0763 1.62968 13.8332C1.38657 13.5901 1.25 13.2604 1.25 12.9166V3.84248" stroke="#373737" stroke-width="1.3" stroke-linecap="round" stroke-linejoin="round"/>
</svg>
