<svg width="26" height="24" viewBox="0 0 26 24" fill="none" xmlns="http://www.w3.org/2000/svg">
<path d="M24.0001 5H2.00012C1.44784 5 1.00012 5.44772 1.00012 6V22C1.00012 22.5523 1.44784 23 2.00012 23H24.0001C24.5524 23 25.0001 22.5523 25.0001 22V6C25.0001 5.44772 24.5524 5 24.0001 5Z" stroke="#0077B5" stroke-width="2" stroke-linecap="round" stroke-linejoin="round"/>
<path d="M17.9991 5V3C17.9991 2.46957 17.7884 1.96086 17.4134 1.58579C17.0383 1.21071 16.5296 1 15.9991 1H9.99915C9.46871 1 8.96001 1.21071 8.58493 1.58579C8.20986 1.96086 7.99915 2.46957 7.99915 3V5" stroke="#0077B5" stroke-width="2" stroke-linecap="round" stroke-linejoin="round"/>
<path d="M25.0002 11.7886C21.3531 13.8986 17.2127 15.0066 12.9992 14.9999C8.78636 15.0066 4.6467 13.899 1 11.7896" stroke="#0077B5" stroke-width="2" stroke-linecap="round" stroke-linejoin="round"/>
<path d="M11.4991 11H14.4991" stroke="#0077B5" stroke-width="2" stroke-linecap="round" stroke-linejoin="round"/>
</svg>
