<svg width="80" height="80" viewBox="0 0 80 80" fill="none" xmlns="http://www.w3.org/2000/svg">
<rect width="80" height="80" rx="40" fill="#F5FCFF"/>
<path d="M48 48H32.5618C32.3277 48 32.1009 47.9178 31.9211 47.7678C31.7413 47.6177 31.6199 47.4093 31.578 47.1789L28.2402 28.8211C28.1983 28.5907 28.0769 28.3823 27.8971 28.2322C27.7173 28.0822 27.4905 28 27.2563 28H25" stroke="#0077B5" stroke-width="2" stroke-linecap="round" stroke-linejoin="round"/>
<path d="M33 53C34.3807 53 35.5 51.8807 35.5 50.5C35.5 49.1193 34.3807 48 33 48C31.6193 48 30.5 49.1193 30.5 50.5C30.5 51.8807 31.6193 53 33 53Z" stroke="#0077B5" stroke-width="2" stroke-linecap="round" stroke-linejoin="round"/>
<path d="M48 53C49.3807 53 50.5 51.8807 50.5 50.5C50.5 49.1193 49.3807 48 48 48C46.6193 48 45.5 49.1193 45.5 50.5C45.5 51.8807 46.6193 53 48 53Z" stroke="#0077B5" stroke-width="2" stroke-linecap="round" stroke-linejoin="round"/>
<path d="M29 33H50.8018C50.9483 33 51.0929 33.0322 51.2256 33.0943C51.3583 33.1563 51.4757 33.2468 51.5695 33.3593C51.6634 33.4717 51.7314 33.6034 51.7687 33.745C51.8061 33.8867 51.8119 34.0348 51.7857 34.1789L50.1493 43.1789C50.1074 43.4093 49.986 43.6177 49.8062 43.7678C49.6264 43.9178 49.3996 44 49.1654 44H31" stroke="#0077B5" stroke-width="2" stroke-linecap="round" stroke-linejoin="round"/>
</svg>
