<svg width="216" height="179" viewBox="0 0 216 179" fill="none" xmlns="http://www.w3.org/2000/svg">
<g clip-path="url(#clip0)">
<path d="M10.0368 170.568C13.0329 176.084 19.3918 178.452 19.3918 178.452C19.3918 178.452 20.893 171.877 17.8969 166.361C14.9007 160.845 8.54184 158.477 8.54184 158.477C8.54184 158.477 7.04067 165.052 10.0368 170.568Z" fill="#2F2E41"/>
<path d="M12.0961 168.753C17.5054 171.984 19.5887 178.401 19.5887 178.401C19.5887 178.401 12.9018 179.58 7.49254 176.349C2.08328 173.119 0 166.702 0 166.702C0 166.702 6.68687 165.523 12.0961 168.753Z" fill="#0077B5"/>
<path d="M133.372 8.59323H99.6223V9.07186H133.372V8.59323Z" fill="#F2F2F2"/>
<path d="M124.212 8.95221H123.729V13.3795H124.212V8.95221Z" fill="#F2F2F2"/>
<path d="M109.506 8.95221H109.024V13.3795H109.506V8.95221Z" fill="#F2F2F2"/>
<path d="M150.489 31.5674H116.739V32.046H150.489V31.5674Z" fill="#F2F2F2"/>
<path d="M126.381 27.2597H125.899V31.687H126.381V27.2597Z" fill="#F2F2F2"/>
<path d="M141.087 27.2597H140.604V31.687H141.087V27.2597Z" fill="#F2F2F2"/>
<path d="M195.328 42.3365H161.578V42.8151H195.328V42.3365Z" fill="#F2F2F2"/>
<path d="M171.221 38.0289H170.739V42.4562H171.221V38.0289Z" fill="#F2F2F2"/>
<path d="M185.926 38.0289H185.444V42.4562H185.926V38.0289Z" fill="#F2F2F2"/>
<path d="M191.953 153.378H158.203V153.857H191.953V153.378Z" fill="#F2F2F2"/>
<path d="M167.846 149.071H167.364V153.498H167.846V149.071Z" fill="#F2F2F2"/>
<path d="M182.551 149.071H182.069V153.498H182.551V149.071Z" fill="#F2F2F2"/>
<path d="M134.337 76.5584H100.587V77.037H134.337V76.5584Z" fill="#F2F2F2"/>
<path d="M110.229 72.2507H109.747V76.678H110.229V72.2507Z" fill="#F2F2F2"/>
<path d="M124.935 72.2507H124.453V76.678H124.935V72.2507Z" fill="#F2F2F2"/>
<path d="M144.944 134.233H111.194V134.712H144.944V134.233Z" fill="#F2F2F2"/>
<path d="M120.837 129.925H120.354V134.353H120.837V129.925Z" fill="#F2F2F2"/>
<path d="M135.542 129.925H135.06V134.353H135.542V129.925Z" fill="#F2F2F2"/>
<path d="M198.944 116.763H165.194V117.242H198.944V116.763Z" fill="#F2F2F2"/>
<path d="M174.837 112.455H174.354V116.883H174.837V112.455Z" fill="#F2F2F2"/>
<path d="M189.542 112.455H189.06V116.883H189.542V112.455Z" fill="#F2F2F2"/>
<path d="M87.2823 168.042H30.2V167.635H86.8715V147.863H34.9987L32.4788 142.651L32.8491 142.475L35.2571 147.455H87.2823V168.042Z" fill="#2F2E41"/>
<path d="M37.7973 178.03C40.1788 178.03 42.1093 176.114 42.1093 173.75C42.1093 171.386 40.1788 169.469 37.7973 169.469C35.4159 169.469 33.4854 171.386 33.4854 173.75C33.4854 176.114 35.4159 178.03 37.7973 178.03Z" fill="#3F3D56"/>
<path d="M80.301 178.03C82.6824 178.03 84.613 176.114 84.613 173.75C84.613 171.386 82.6824 169.469 80.301 169.469C77.9195 169.469 75.989 171.386 75.989 173.75C75.989 176.114 77.9195 178.03 80.301 178.03Z" fill="#3F3D56"/>
<path d="M130.402 85.4891C131.876 85.4891 133.072 84.3027 133.072 82.8392C133.072 81.3758 131.876 80.1894 130.402 80.1894C128.928 80.1894 127.733 81.3758 127.733 82.8392C127.733 84.3027 128.928 85.4891 130.402 85.4891Z" fill="#3F3D56"/>
<path d="M93.3875 141.136H29.2266L15.3438 96.0886H107.685L107.601 96.3536L93.3875 141.136ZM29.5304 140.729H93.0863L107.125 96.4962H15.8988L29.5304 140.729Z" fill="#2F2E41"/>
<path d="M88.3792 138.792H32.0244L19.8306 98.8403H100.937L100.863 99.0755L88.3792 138.792Z" fill="#F2F2F2"/>
<path d="M108.835 92.0641L108.438 91.9595L111.148 81.82H126.912V82.2278H111.464L108.835 92.0641Z" fill="#2F2E41"/>
<path d="M103.07 109.746H19.8301V110.153H103.07V109.746Z" fill="#2F2E41"/>
<path d="M98.3036 124.765H24.459V125.173H98.3036V124.765Z" fill="#2F2E41"/>
<path d="M61.7185 96.2924H61.3079V140.932H61.7185V96.2924Z" fill="#2F2E41"/>
<path d="M80.1047 96.2796L77.1567 140.918L77.5666 140.945L80.5145 96.3063L80.1047 96.2796Z" fill="#2F2E41"/>
<path d="M42.9301 96.2791L42.5203 96.3056L45.4511 140.946L45.8609 140.919L42.9301 96.2791Z" fill="#2F2E41"/>
<path d="M216 178.289H0V178.768H216V178.289Z" fill="#2F2E41"/>
<path d="M143.537 14.8078C143.537 14.8078 147.061 24.7647 144.892 26.2966C142.723 27.8284 152.211 40.3384 152.211 40.3384L163.597 37.2748L157.362 26.8072C157.362 26.8072 156.549 16.3396 156.549 14.8078C156.549 13.2759 143.537 14.8078 143.537 14.8078Z" fill="#A0616A"/>
<path opacity="0.1" d="M143.537 14.8078C143.537 14.8078 147.061 24.7647 144.892 26.2966C142.723 27.8284 152.211 40.3384 152.211 40.3384L163.597 37.2748L157.362 26.8072C157.362 26.8072 156.549 16.3396 156.549 14.8078C156.549 13.2759 143.537 14.8078 143.537 14.8078Z" fill="black"/>
<path d="M137.621 85.783C137.621 85.783 136.593 98.5484 137.621 105.186C138.65 111.824 140.193 130.206 140.193 130.206C140.193 130.206 140.193 164.928 145.851 165.439C151.509 165.949 155.624 166.46 156.138 164.418C156.653 162.375 153.567 161.354 155.11 160.333C156.653 159.311 157.167 155.737 155.11 151.652C153.052 147.567 155.11 106.208 155.11 106.208L164.883 132.249C164.883 132.249 165.911 153.695 166.94 156.758C167.969 159.822 165.911 165.439 169.512 165.949C173.112 166.46 177.227 163.396 179.285 162.375C181.342 161.354 176.199 161.354 177.227 160.843C178.256 160.333 181.342 158.801 180.313 158.29C179.285 157.78 178.256 133.27 178.256 133.27C178.256 133.27 175.427 80.9322 171.826 78.8898C168.226 76.8473 165.911 80.3653 165.911 80.3653L137.621 85.783Z" fill="#2F2E41"/>
<path d="M146.88 163.396V167.481C146.88 167.481 142.251 178.585 146.88 178.585C151.509 178.585 155.11 179.736 155.11 178.204V164.418L146.88 163.396Z" fill="#2F2E41"/>
<path d="M177.227 163.389V167.474C177.227 167.474 181.857 178.578 177.227 178.578C172.598 178.578 168.998 179.729 168.998 178.197V164.41L177.227 163.389Z" fill="#2F2E41"/>
<path d="M150.738 22.2117C155.851 22.2117 159.996 18.0967 159.996 13.0206C159.996 7.94457 155.851 3.82961 150.738 3.82961C145.624 3.82961 141.479 7.94457 141.479 13.0206C141.479 18.0967 145.624 22.2117 150.738 22.2117Z" fill="#A0616A"/>
<path d="M147.909 30.1262C147.909 30.1262 150.48 37.7854 154.595 36.2536L158.71 34.7217L165.911 83.7406C165.911 83.7406 160.253 91.9104 152.024 86.8043C143.794 81.6981 147.909 30.1262 147.909 30.1262Z" fill="#0077B5"/>
<path d="M155.11 28.5944L157.424 23.7435C157.424 23.7435 171.055 30.1262 173.112 32.1687C175.17 34.2111 175.17 37.2748 175.17 37.2748L171.569 50.0401C171.569 50.0401 172.598 78.1239 172.598 79.1451C172.598 80.1663 176.199 85.7831 173.627 83.7406C171.055 81.6982 170.541 79.6557 168.483 82.7194C166.426 85.7831 161.796 89.3574 161.796 89.3574L155.11 28.5944Z" fill="#3F3D56"/>
<path d="M173.112 65.3585L171.569 79.6557C171.569 79.6557 162.311 87.8255 164.368 88.3361C166.426 88.8467 167.454 86.8043 167.454 86.8043C167.454 86.8043 171.055 90.3786 173.112 88.3361C175.17 86.2937 180.313 66.8904 180.313 66.8904L173.112 65.3585Z" fill="#A0616A"/>
<path d="M150.935 0.03108C148.882 -0.04176 146.686 -0.0777914 144.955 1.02021C144.159 1.57126 143.461 2.24992 142.889 3.02843C141.203 5.14359 139.747 7.80496 140.373 10.4293L141.1 10.1478C141.1 10.8483 140.943 11.54 140.641 12.173C140.743 11.8774 141.086 12.3552 140.994 12.6542L140.193 15.2629C141.51 14.7837 143.148 15.7539 143.349 17.1319C143.44 14.1019 143.757 10.6274 146.233 8.8532C147.481 7.95849 149.062 7.68535 150.582 7.44281C151.985 7.21905 153.455 7.00568 154.799 7.46407C156.142 7.92247 157.286 9.28645 156.982 10.6639C157.601 10.4521 158.294 10.8807 158.6 11.4557C158.906 12.0308 158.922 12.7091 158.931 13.3595C159.592 13.8227 160.343 12.9028 160.612 12.1459C161.244 10.3691 161.806 8.47782 161.465 6.62418C161.125 4.77055 159.603 2.99912 157.705 2.99283C157.936 2.74163 158.059 2.41133 158.048 2.07178L156.484 1.94056C156.881 1.88474 157.246 1.69358 157.517 1.39982C156.889 2.08592 151.95 0.067123 150.935 0.03108Z" fill="#2F2E41"/>
<path d="M150.48 27.0625C150.48 27.0625 146.293 22.9892 144.786 23.2387C143.279 23.4882 141.222 27.0625 141.222 27.0625C141.222 27.0625 128.877 31.1474 129.391 35.2323C129.906 39.3172 135.564 59.2311 135.564 59.2311C135.564 59.2311 140.193 83.23 136.078 85.783C131.963 88.3361 155.624 94.9741 156.138 91.9104C156.653 88.8467 157.681 58.2099 156.138 53.6144C154.595 49.0189 150.48 27.0625 150.48 27.0625Z" fill="#3F3D56"/>
<path d="M168.483 35.2323H174.843C174.843 35.2323 179.285 54.6356 179.799 56.6781C180.314 58.7205 181.342 68.4222 180.828 68.4222C180.314 68.4222 170.026 66.3797 170.026 67.9116L168.483 35.2323Z" fill="#3F3D56"/>
<path d="M168.268 83.2813H143.92C141.544 72.4308 141.345 61.9473 143.92 51.9311H168.268C164.339 61.7671 164.093 72.1788 168.268 83.2813Z" fill="#F2F2F2"/>
<path d="M134.021 69.954L141.222 73.0177C141.222 73.0177 155.11 75.0602 155.11 69.4434C155.11 63.8267 141.222 66.8904 141.222 66.8904L136.592 65.421L134.021 69.954Z" fill="#A0616A"/>
<path d="M135.564 32.1686L129.391 33.7005L124.762 60.763C124.762 60.763 123.219 67.9116 125.791 68.4222C128.363 68.9328 135.564 73.0177 135.564 73.0177C135.564 73.0177 136.592 65.3585 138.65 65.3585L133.506 61.2736L136.592 43.4021L135.564 32.1686Z" fill="#3F3D56"/>
<path d="M48.2742 84.4557H14.5242V84.9344H48.2742V84.4557Z" fill="#F2F2F2"/>
<path d="M24.167 80.1481H23.6848V84.5754H24.167V80.1481Z" fill="#F2F2F2"/>
<path d="M38.8725 80.1481H38.3904V84.5754H38.8725V80.1481Z" fill="#F2F2F2"/>
<path d="M60.0867 13.6188H26.3367V14.0975H60.0867V13.6188Z" fill="#F2F2F2"/>
<path d="M50.926 13.9778H50.4438V18.4051H50.926V13.9778Z" fill="#F2F2F2"/>
<path d="M36.2207 13.9778H35.7385V18.4051H36.2207V13.9778Z" fill="#F2F2F2"/>
<path d="M94.0779 60.7637H60.3279V61.2423H94.0779V60.7637Z" fill="#F2F2F2"/>
<path d="M84.917 61.1227H84.4348V65.55H84.917V61.1227Z" fill="#F2F2F2"/>
<path d="M70.2116 61.1227H69.7295V65.55H70.2116V61.1227Z" fill="#F2F2F2"/>
<path d="M36.7029 60.5244H2.95288V61.003H36.7029V60.5244Z" fill="#F2F2F2"/>
<path d="M27.542 60.8833H27.0598V65.3106H27.542V60.8833Z" fill="#F2F2F2"/>
<path d="M12.8366 60.8833H12.3545V65.3106H12.8366V60.8833Z" fill="#F2F2F2"/>
<path d="M77.2029 36.593H43.4529V37.0716H77.2029V36.593Z" fill="#F2F2F2"/>
<path d="M53.0957 32.2853H52.6135V36.7126H53.0957V32.2853Z" fill="#F2F2F2"/>
<path d="M67.801 32.2853H67.3188V36.7126H67.801V32.2853Z" fill="#F2F2F2"/>
</g>
<defs>
<clipPath id="clip0">
<rect width="216" height="179" fill="white"/>
</clipPath>
</defs>
</svg>
