<svg width="28" height="26" viewBox="0 0 28 26" fill="none" xmlns="http://www.w3.org/2000/svg">
<path d="M4 14.4485V23C4 23.2652 4.10536 23.5196 4.29289 23.7071C4.48043 23.8946 4.73478 24 5 24H23C23.2652 24 23.5196 23.8946 23.7071 23.7071C23.8946 23.5196 24 23.2652 24 23V14.4487M26 9L24.2072 2.72528C24.1475 2.51633 24.0214 2.33251 23.8479 2.20165C23.6744 2.07079 23.463 2 23.2457 2H4.7543C4.53699 2 4.3256 2.07079 4.15211 2.20165C3.97862 2.33251 3.85248 2.51633 3.79278 2.72528L2 9M26 9H2M26 9V11C26 12.0609 25.5786 13.0783 24.8284 13.8284C24.0783 14.5786 23.0609 15 22 15C20.9391 15 19.9217 14.5786 19.1716 13.8284C18.4214 13.0783 18 12.0609 18 11M2 9V11C2 12.0609 2.42143 13.0783 3.17157 13.8284C3.92172 14.5786 4.93913 15 6 15C7.06087 15 8.07828 14.5786 8.82843 13.8284C9.57857 13.0783 10 12.0609 10 11M10 9V11M10 11C10 12.0609 10.4214 13.0783 11.1716 13.8284C11.9217 14.5786 12.9391 15 14 15C15.0609 15 16.0783 14.5786 16.8284 13.8284C17.5786 13.0783 18 12.0609 18 11M18 9V11" stroke="#8FD5F0" stroke-width="3" stroke-linecap="round" stroke-linejoin="round"/>
</svg>
