<svg width="16" height="16" viewBox="0 0 16 16" fill="none" xmlns="http://www.w3.org/2000/svg">
<path d="M8.00098 8.00044V0.999817" stroke="#373737" stroke-width="1.3" stroke-linecap="round" stroke-linejoin="round"/>
<path d="M14.0629 4.50006L1.9375 11.5007" stroke="#373737" stroke-width="1.3" stroke-linecap="round" stroke-linejoin="round"/>
<path d="M1.11674 9.28027C0.813636 7.63995 1.10526 5.9453 1.93924 4.50065C2.77322 3.056 4.09492 1.956 5.66698 1.39819V6.65319L1.11674 9.28027Z" stroke="#373737" stroke-width="1.3" stroke-linecap="round" stroke-linejoin="round"/>
<path d="M8.00069 0.999817C9.22721 1.00004 10.4321 1.32251 11.4948 1.93491C12.5575 2.54732 13.4407 3.42818 14.0558 4.48928C14.671 5.55038 14.9966 6.75447 15 7.98099C15.0034 9.20751 14.6845 10.4134 14.0752 11.4779C13.466 12.5424 12.5878 13.4281 11.5285 14.0464C10.4692 14.6647 9.26608 14.9939 8.03958 15.0009C6.81308 15.008 5.60626 14.6927 4.53995 14.0866C3.47365 13.4805 2.58531 12.6049 1.96387 11.5474" stroke="#373737" stroke-width="1.3" stroke-linecap="round" stroke-linejoin="round"/>
</svg>
