<svg width="18" height="18" viewBox="0 0 18 18" fill="none" xmlns="http://www.w3.org/2000/svg">
<path d="M9 4.67308C9 4.03044 9.25529 3.41412 9.7097 2.9597C10.1641 2.50529 10.7804 2.25 11.4231 2.25H16.2692C16.4299 2.25 16.584 2.31382 16.6976 2.42743C16.8112 2.54103 16.875 2.69511 16.875 2.85577V12.5481C16.875 12.7087 16.8112 12.8628 16.6976 12.9764C16.584 13.09 16.4299 13.1538 16.2692 13.1538H11.4231C10.7804 13.1538 10.1641 13.4091 9.7097 13.8635C9.25529 14.318 9 14.9343 9 15.5769" stroke="#373737" stroke-width="1.3" stroke-linecap="round" stroke-linejoin="round"/>
<path d="M1.125 12.5481C1.125 12.7087 1.18882 12.8628 1.30243 12.9764C1.41603 13.09 1.57011 13.1538 1.73077 13.1538H6.57692C7.21956 13.1538 7.83588 13.4091 8.2903 13.8635C8.74471 14.318 9 14.9343 9 15.5769V4.67308C9 4.03044 8.74471 3.41412 8.2903 2.9597C7.83588 2.50529 7.21956 2.25 6.57692 2.25H1.73077C1.57011 2.25 1.41603 2.31382 1.30243 2.42743C1.18882 2.54103 1.125 2.69511 1.125 2.85577V12.5481Z" stroke="#373737" stroke-width="1.3" stroke-linecap="round" stroke-linejoin="round"/>
</svg>
