<svg width="26" height="26" viewBox="0 0 26 26" fill="none" xmlns="http://www.w3.org/2000/svg">
<path d="M0.0761929 12.6174C0.151878 12.4347 0.280044 12.2785 0.444483 12.1686C0.608922 12.0587 0.802249 12.0001 1.00002 12.0001L6.00002 12.0001L6.00002 2.00006C6.00063 1.46981 6.21154 0.961459 6.58648 0.586517C6.96142 0.211576 7.46977 0.000667458 8.00002 6.10352e-05L18 6.10352e-05C18.5303 0.000667458 19.0386 0.211576 19.4136 0.586517C19.7885 0.961459 19.9994 1.46981 20 2.00006L20 12.0001H25C25.1978 12.0001 25.3911 12.0587 25.5556 12.1686C25.72 12.2785 25.8482 12.4347 25.9239 12.6174C25.9996 12.8001 26.0194 13.0012 25.9808 13.1952C25.9422 13.3892 25.847 13.5673 25.7072 13.7072L13.7072 25.7072C13.5196 25.8947 13.2652 26 13 26C12.7348 26 12.4805 25.8947 12.2929 25.7072L0.292868 13.7072C0.15305 13.5673 0.0578401 13.3891 0.0192738 13.1951C-0.0192926 13.0012 0.000514656 12.8001 0.0761929 12.6174V12.6174Z" fill="white"/>
</svg>
