<svg width="16" height="16" viewBox="0 0 16 16" fill="none" xmlns="http://www.w3.org/2000/svg">
<path d="M4.35918 15.4399C4.28564 15.4399 4.21281 15.4255 4.14486 15.3973C4.07692 15.3692 4.01518 15.3279 3.96317 15.2759C3.91117 15.2239 3.86991 15.1622 3.84177 15.0942C3.81363 15.0263 3.79914 14.9534 3.79914 14.8799L3.79918 11.891C3.50041 12.0325 3.17071 12.0962 2.84074 12.076C2.51078 12.0559 2.19126 11.9526 1.91192 11.7759C1.63258 11.5991 1.40249 11.3545 1.24305 11.0649C1.08361 10.7753 1 10.4501 1 10.1195C1 9.78896 1.08361 9.46375 1.24305 9.17415C1.40249 8.88456 1.63258 8.64 1.91192 8.46322C2.19126 8.28643 2.51078 8.18317 2.84074 8.16303C3.17071 8.14289 3.50041 8.20654 3.79918 8.34804L3.79914 5.35918C3.79914 5.28564 3.81363 5.21281 3.84177 5.14486C3.86992 5.07691 3.91117 5.01517 3.96318 4.96317C4.01518 4.91116 4.07692 4.86991 4.14487 4.84176C4.21282 4.81362 4.28565 4.79913 4.35919 4.79913L7.62806 4.79917C7.48656 4.50041 7.42291 4.17071 7.44305 3.84074C7.46319 3.51077 7.56645 3.19126 7.74324 2.91192C7.92002 2.63258 8.16458 2.40249 8.45417 2.24305C8.74376 2.08361 9.06897 2 9.39956 2C9.73014 2 10.0553 2.08361 10.3449 2.24305C10.6345 2.40249 10.8791 2.63258 11.0559 2.91192C11.2327 3.19126 11.3359 3.51077 11.3561 3.84074C11.3762 4.17071 11.3126 4.50041 11.1711 4.79917L14.4399 4.79913C14.5884 4.79913 14.7309 4.85814 14.8359 4.96316C14.941 5.06819 15 5.21064 15 5.35917L15 8.34804C14.7012 8.20653 14.3715 8.14289 14.0416 8.16303C13.7116 8.18317 13.3921 8.28643 13.1127 8.46322C12.8334 8.64 12.6033 8.88456 12.4439 9.17415C12.2844 9.46375 12.2008 9.78896 12.2008 10.1195C12.2008 10.4501 12.2844 10.7753 12.4439 11.0649C12.6033 11.3545 12.8334 11.5991 13.1127 11.7759C13.3921 11.9526 13.7116 12.0559 14.0416 12.076C14.3715 12.0962 14.7012 12.0325 15 11.891L15 14.8799C15 15.0284 14.941 15.1709 14.8359 15.2759C14.7309 15.3809 14.5885 15.4399 14.4399 15.4399L4.35918 15.4399Z" stroke="#373737" stroke-linecap="round" stroke-linejoin="round"/>
</svg>
