<svg width="16" height="16" viewBox="0 0 16 16" fill="none" xmlns="http://www.w3.org/2000/svg">
<path d="M8 5.15385C8 4.58261 8.22692 4.03477 8.63085 3.63085C9.03477 3.22692 9.58261 3 10.1538 3H14.4615C14.6043 3 14.7413 3.05673 14.8423 3.15771C14.9433 3.25869 15 3.39565 15 3.53846V12.1538C15 12.2967 14.9433 12.4336 14.8423 12.5346C14.7413 12.6356 14.6043 12.6923 14.4615 12.6923H10.1538C9.58261 12.6923 9.03477 12.9192 8.63085 13.3232C8.22692 13.7271 8 14.2749 8 14.8462" stroke="#373737" stroke-width="1.3" stroke-linecap="round" stroke-linejoin="round"/>
<path d="M1 12.1538C1 12.2967 1.05673 12.4336 1.15771 12.5346C1.25869 12.6356 1.39565 12.6923 1.53846 12.6923H5.84615C6.41739 12.6923 6.96523 12.9192 7.36915 13.3232C7.77308 13.7271 8 14.2749 8 14.8462V5.15385C8 4.58261 7.77308 4.03477 7.36915 3.63085C6.96523 3.22692 6.41739 3 5.84615 3H1.53846C1.39565 3 1.25869 3.05673 1.15771 3.15771C1.05673 3.25869 1 3.39565 1 3.53846V12.1538Z" stroke="#373737" stroke-width="1.3" stroke-linecap="round" stroke-linejoin="round"/>
</svg>
