<svg width="18" height="17" viewBox="0 0 18 17" fill="none" xmlns="http://www.w3.org/2000/svg">
<path d="M5.9187 3.2771H16.8753" stroke="#373737" stroke-width="1.3" stroke-linecap="round" stroke-linejoin="round"/>
<path d="M5.91956 8.75548H16.8756" stroke="#373737" stroke-width="1.3" stroke-linecap="round" stroke-linejoin="round"/>
<path d="M5.91956 14.2336H16.8756" stroke="#373737" stroke-width="1.3" stroke-linecap="round" stroke-linejoin="round"/>
<path d="M2.15218 4.30435C2.71947 4.30435 3.17935 3.84447 3.17935 3.27718C3.17935 2.70988 2.71947 2.25 2.15218 2.25C1.58488 2.25 1.125 2.70988 1.125 3.27718C1.125 3.84447 1.58488 4.30435 2.15218 4.30435Z" fill="#373737"/>
<path d="M2.15218 9.78273C2.71947 9.78273 3.17935 9.32285 3.17935 8.75555C3.17935 8.18826 2.71947 7.72838 2.15218 7.72838C1.58488 7.72838 1.125 8.18826 1.125 8.75555C1.125 9.32285 1.58488 9.78273 2.15218 9.78273Z" fill="#373737"/>
<path d="M2.15218 15.2609C2.71947 15.2609 3.17935 14.801 3.17935 14.2337C3.17935 13.6664 2.71947 13.2065 2.15218 13.2065C1.58488 13.2065 1.125 13.6664 1.125 14.2337C1.125 14.801 1.58488 15.2609 2.15218 15.2609Z" fill="#373737"/>
</svg>
