<svg width="28" height="24" viewBox="0 0 28 24" fill="none" xmlns="http://www.w3.org/2000/svg">
<path d="M14.4523 22.1127L24.0554 12.5097C26.4149 10.1501 26.763 6.26832 24.5301 3.78861C23.9708 3.16569 23.2904 2.66325 22.5305 2.31196C21.7706 1.96067 20.9471 1.7679 20.1102 1.74539C19.2733 1.72289 18.4406 1.87113 17.663 2.18107C16.8853 2.49101 16.1789 2.95615 15.5869 3.54811L13.7819 5.35305L12.2236 3.79467C9.86402 1.43511 5.98219 1.08699 3.50247 3.31993C2.87955 3.87925 2.37712 4.55962 2.02583 5.31952C1.67454 6.07943 1.48176 6.90295 1.45926 7.73982C1.43675 8.5767 1.58499 9.40938 1.89494 10.1871C2.20488 10.9648 2.67002 11.6712 3.26198 12.2631L13.1116 22.1127C13.2894 22.2905 13.5305 22.3904 13.782 22.3904C14.0334 22.3904 14.2745 22.2905 14.4523 22.1127V22.1127Z" stroke="#A2A2A2" stroke-width="2" stroke-linecap="round" stroke-linejoin="round"/>
</svg>
