<svg width="16" height="16" viewBox="0 0 16 16" fill="none" xmlns="http://www.w3.org/2000/svg">
<path d="M8.07046 7.82251L8 14.645" stroke="#373737" stroke-linecap="round" stroke-linejoin="round"/>
<path d="M14.1048 10.9635V4.68156C14.1048 4.58754 14.0799 4.49522 14.0325 4.41401C13.9851 4.33281 13.917 4.26565 13.8352 4.21939L8.26091 1.06872C8.18121 1.02367 8.09122 1 7.99968 1C7.90814 1 7.81815 1.02367 7.73846 1.06872L2.16419 4.21939C2.08235 4.26565 2.01425 4.33281 1.96687 4.41401C1.9195 4.49522 1.89453 4.58754 1.89453 4.68156V10.9635C1.89453 11.0575 1.9195 11.1499 1.96687 11.2311C2.01425 11.3123 2.08235 11.3794 2.16419 11.4257L7.73846 14.5764C7.81815 14.6214 7.90814 14.6451 7.99968 14.6451C8.09122 14.6451 8.18121 14.6214 8.26091 14.5764L13.8352 11.4257C13.917 11.3794 13.9851 11.3123 14.0325 11.2311C14.0799 11.1499 14.1048 11.0575 14.1048 10.9635V10.9635Z" stroke="#373737" stroke-linecap="round" stroke-linejoin="round"/>
<path d="M14.0312 4.41337L8.06923 7.8225L1.9668 4.41264" stroke="#373737" stroke-linecap="round" stroke-linejoin="round"/>
</svg>
