<svg width="20" height="28" viewBox="0 0 20 28" fill="none" xmlns="http://www.w3.org/2000/svg">
<path d="M9.94506 1H9.94507C11.2712 1 12.5429 1.52678 13.4806 2.46447C14.4183 3.40215 14.9451 4.67392 14.9451 6V14C14.9451 15.3261 14.4183 16.5979 13.4806 17.5355C12.5429 18.4732 11.2712 19 9.94507 19H9.94506C9.28845 19 8.63827 18.8707 8.03164 18.6194C7.42502 18.3681 6.87382 17.9998 6.40953 17.5355C5.94524 17.0712 5.57694 16.5201 5.32567 15.9134C5.0744 15.3068 4.94507 14.6566 4.94507 14V5.99999C4.94507 4.67391 5.47185 3.40214 6.40953 2.46446C7.34721 1.52678 8.61898 1 9.94506 1V1Z" stroke="#0077B5" stroke-width="2" stroke-linecap="round" stroke-linejoin="round"/>
<path d="M9.94507 23V27" stroke="#0077B5" stroke-width="2" stroke-linecap="round" stroke-linejoin="round"/>
<path d="M18.8901 15C18.644 17.2002 17.5956 19.2324 15.9454 20.7082C14.2952 22.1841 12.1589 23 9.94506 23C7.73119 23 5.59496 22.1841 3.94477 20.7082C2.29458 19.2324 1.24618 17.2001 1 15" stroke="#0077B5" stroke-width="2" stroke-linecap="round" stroke-linejoin="round"/>
</svg>
