<svg width="16" height="16" viewBox="0 0 16 16" fill="none" xmlns="http://www.w3.org/2000/svg">
<path d="M8 15C11.866 15 15 11.866 15 8C15 4.13401 11.866 1 8 1C4.13401 1 1 4.13401 1 8C1 11.866 4.13401 15 8 15Z" stroke="#373737" stroke-width="1.3" stroke-linecap="round" stroke-linejoin="round"/>
<path d="M11.0322 9.75C10.7247 10.2819 10.2827 10.7235 9.75056 11.0305C9.21842 11.3375 8.61487 11.4992 8.0005 11.4992C7.38614 11.4992 6.78259 11.3375 6.25043 11.0305C5.71828 10.7235 5.27626 10.2819 4.96875 9.75005" stroke="#373737" stroke-width="1.3" stroke-linecap="round" stroke-linejoin="round"/>
<path d="M5.375 7.41699C5.85825 7.41699 6.25 7.02524 6.25 6.54199C6.25 6.05874 5.85825 5.66699 5.375 5.66699C4.89175 5.66699 4.5 6.05874 4.5 6.54199C4.5 7.02524 4.89175 7.41699 5.375 7.41699Z" fill="#373737"/>
<path d="M10.625 7.41699C11.1082 7.41699 11.5 7.02524 11.5 6.54199C11.5 6.05874 11.1082 5.66699 10.625 5.66699C10.1418 5.66699 9.75 6.05874 9.75 6.54199C9.75 7.02524 10.1418 7.41699 10.625 7.41699Z" fill="#373737"/>
</svg>
