<svg width="16" height="15" viewBox="0 0 16 15" fill="none" xmlns="http://www.w3.org/2000/svg">
<path d="M8.2969 12.2224L11.6916 14.3731C12.1255 14.648 12.6643 14.2392 12.5355 13.7326L11.5547 9.8744C11.5271 9.76694 11.5304 9.65386 11.5641 9.54818C11.5979 9.4425 11.6609 9.3485 11.7457 9.27699L14.7898 6.74329C15.1898 6.41037 14.9834 5.74655 14.4695 5.7132L10.494 5.45519C10.3869 5.44754 10.2842 5.40963 10.1979 5.34587C10.1115 5.28211 10.045 5.19513 10.0062 5.09505L8.52351 1.36129C8.48321 1.25507 8.41154 1.16362 8.31804 1.09909C8.22453 1.03456 8.11361 1 8 1C7.88639 1 7.77547 1.03456 7.68196 1.09909C7.58846 1.16362 7.5168 1.25507 7.47649 1.36129L5.99382 5.09505C5.95497 5.19513 5.88849 5.28211 5.80212 5.34587C5.71576 5.40963 5.61305 5.44754 5.50598 5.45519L1.53052 5.7132C1.01662 5.74655 0.810172 6.41037 1.21016 6.74329L4.2543 9.27699C4.33914 9.3485 4.40207 9.4425 4.43586 9.54818C4.46964 9.65386 4.47291 9.76694 4.44529 9.8744L3.53571 13.4525C3.3812 14.0603 4.0277 14.551 4.54841 14.2211L7.7031 12.2224C7.79183 12.1659 7.89482 12.1359 8 12.1359C8.10518 12.1359 8.20817 12.1659 8.2969 12.2224V12.2224Z" stroke="#373737" stroke-linecap="round" stroke-linejoin="round"/>
</svg>
