<svg width="26" height="22" viewBox="0 0 26 22" fill="none" xmlns="http://www.w3.org/2000/svg">
<path d="M24 1H2C1.44772 1 1 1.44772 1 2V20C1 20.5523 1.44772 21 2 21H24C24.5523 21 25 20.5523 25 20V2C25 1.44772 24.5523 1 24 1Z" stroke="#0077B5" stroke-width="2" stroke-linecap="round" stroke-linejoin="round"/>
<path d="M1 5H25" stroke="#0077B5" stroke-width="2" stroke-linecap="round" stroke-linejoin="round"/>
<path d="M18 9C18 10.3261 17.4732 11.5979 16.5355 12.5355C15.5979 13.4732 14.3261 14 13 14C11.6739 14 10.4021 13.4732 9.46447 12.5355C8.52678 11.5979 8 10.3261 8 9" stroke="#0077B5" stroke-width="2" stroke-linecap="round" stroke-linejoin="round"/>
</svg>
