<svg width="31" height="20" viewBox="0 0 31 20" fill="none" xmlns="http://www.w3.org/2000/svg">
<path d="M10.001 14.0015C13.5908 14.0015 16.501 11.0913 16.501 7.5015C16.501 3.91164 13.5908 1.0015 10.001 1.0015C6.41113 1.0015 3.50098 3.91164 3.50098 7.5015C3.50098 11.0913 6.41113 14.0015 10.001 14.0015Z" stroke="#0077B5" stroke-width="2" stroke-miterlimit="10"/>
<path d="M18.4268 1.24361C19.3208 0.991721 20.2584 0.934339 21.1765 1.07533C22.0945 1.21632 22.9717 1.55241 23.749 2.06096C24.5262 2.56952 25.1855 3.23873 25.6823 4.02351C26.1791 4.8083 26.502 5.69044 26.6292 6.61052C26.7564 7.5306 26.685 8.46726 26.4197 9.35741C26.1544 10.2475 25.7014 11.0705 25.0913 11.7709C24.4812 12.4712 23.7281 13.0327 22.8827 13.4175C22.0373 13.8022 21.1193 14.0014 20.1905 14.0015" stroke="#0077B5" stroke-width="2" stroke-linecap="round" stroke-linejoin="round"/>
<path d="M1 18.6761C2.01517 17.2321 3.36287 16.0535 4.92931 15.2399C6.49576 14.4263 8.23497 14.0016 10.0001 14.0015C11.7652 14.0014 13.5045 14.4261 15.071 15.2395C16.6375 16.053 17.9853 17.2315 19.0006 18.6754" stroke="#0077B5" stroke-width="2" stroke-linecap="round" stroke-linejoin="round"/>
<path d="M20.1904 14.0015C21.9557 14.0002 23.6953 14.4243 25.262 15.2379C26.8286 16.0515 28.1761 17.2306 29.1905 18.6754" stroke="#0077B5" stroke-width="2" stroke-linecap="round" stroke-linejoin="round"/>
</svg>
