<svg width="20" height="28" viewBox="0 0 20 28" fill="none" xmlns="http://www.w3.org/2000/svg">
<path d="M9.9453 1H9.94531C11.2714 1 12.5432 1.52678 13.4808 2.46447C14.4185 3.40215 14.9453 4.67392 14.9453 6V14C14.9453 15.3261 14.4185 16.5979 13.4808 17.5355C12.5432 18.4732 11.2714 19 9.94531 19H9.9453C9.28869 19 8.63852 18.8707 8.03189 18.6194C7.42526 18.3681 6.87407 17.9998 6.40978 17.5355C5.94548 17.0712 5.57719 16.5201 5.32591 15.9134C5.07464 15.3068 4.94531 14.6566 4.94531 14V5.99999C4.94531 4.67391 5.4721 3.40214 6.40978 2.46446C7.34746 1.52678 8.61922 1 9.9453 1V1Z" stroke="#0077B5" stroke-width="2" stroke-linecap="round" stroke-linejoin="round"/>
<path d="M9.94531 23V27" stroke="#0077B5" stroke-width="2" stroke-linecap="round" stroke-linejoin="round"/>
<path d="M18.8901 15C18.644 17.2002 17.5956 19.2324 15.9454 20.7082C14.2952 22.1841 12.1589 23 9.94506 23C7.73119 23 5.59496 22.1841 3.94477 20.7082C2.29458 19.2324 1.24618 17.2001 1 15" stroke="#0077B5" stroke-width="2" stroke-linecap="round" stroke-linejoin="round"/>
</svg>
