<svg width="14" height="14" viewBox="0 0 14 14" fill="none" xmlns="http://www.w3.org/2000/svg">
<path d="M5.21875 4.81812H9.58239" stroke="black" stroke-linecap="round" stroke-linejoin="round"/>
<path d="M5.21875 7H9.58239" stroke="black" stroke-linecap="round" stroke-linejoin="round"/>
<path d="M5.21875 9.18188H7.40057" stroke="black" stroke-linecap="round" stroke-linejoin="round"/>
<path d="M9.35627 13H1.94585C1.80118 13 1.66244 12.9425 1.56015 12.8402C1.45786 12.7379 1.40039 12.5992 1.40039 12.4545V1.54545C1.40039 1.40079 1.45786 1.26205 1.56015 1.15976C1.66244 1.05747 1.80118 1 1.94585 1H12.8549C12.9996 1 13.1383 1.05747 13.2406 1.15976C13.3429 1.26205 13.4004 1.40079 13.4004 1.54545V8.95588C13.4004 9.02751 13.3863 9.09844 13.3589 9.16462C13.3315 9.2308 13.2913 9.29093 13.2406 9.34158L9.74197 12.8402C9.69132 12.8909 9.63119 12.9311 9.56501 12.9585C9.49883 12.9859 9.4279 13 9.35627 13V13Z" stroke="black" stroke-linecap="round" stroke-linejoin="round"/>
<path d="M13.3509 9.18115H9.58203V12.9503" stroke="black" stroke-linecap="round" stroke-linejoin="round"/>
</svg>
