<svg width="16" height="16" viewBox="0 0 16 16" fill="none" xmlns="http://www.w3.org/2000/svg">
<path d="M3.04911 5.56891C3.0482 4.91456 3.1768 4.26651 3.42752 3.6621C3.67823 3.0577 4.04609 2.50889 4.50989 2.04731C4.97369 1.58574 5.52426 1.22053 6.12987 0.972726C6.73548 0.724927 7.38414 0.599442 8.03847 0.603504C10.7688 0.623802 12.9527 2.89326 12.9527 5.63124V6.12063C12.9527 8.59069 13.4695 10.024 13.9247 10.8074C13.9737 10.8911 13.9998 10.9863 14.0003 11.0833C14.0008 11.1803 13.9758 11.2757 13.9276 11.36C13.8795 11.4442 13.81 11.5142 13.7262 11.563C13.6423 11.6118 13.5471 11.6376 13.4501 11.6379H2.55122C2.4542 11.6376 2.35896 11.6118 2.27511 11.563C2.19126 11.5142 2.12177 11.4441 2.07364 11.3599C2.02551 11.2757 2.00045 11.1802 2.00098 11.0832C2.00152 10.9862 2.02763 10.891 2.07669 10.8073C2.53209 10.0239 3.04911 8.59056 3.04911 6.12063L3.04911 5.56891Z" stroke="black" stroke-linecap="round" stroke-linejoin="round"/>
<path d="M5.79395 11.6379V12.1897C5.79395 12.775 6.02646 13.3363 6.44033 13.7502C6.85421 14.1641 7.41554 14.3966 8.00085 14.3966C8.58616 14.3966 9.14749 14.1641 9.56137 13.7502C9.97524 13.3363 10.2078 12.775 10.2078 12.1897V11.6379" stroke="black" stroke-linecap="round" stroke-linejoin="round"/>
</svg>
