<svg width="16" height="16" viewBox="0 0 16 16" fill="none" xmlns="http://www.w3.org/2000/svg">
<path d="M13.0141 11.4471H4.94996C4.82763 11.4471 4.70918 11.4041 4.61526 11.3257C4.52134 11.2474 4.45791 11.1385 4.43603 11.0182L2.69253 1.42891C2.67065 1.30856 2.60722 1.1997 2.5133 1.12132C2.41938 1.04293 2.30093 1 2.1786 1H1" stroke="#373737" stroke-width="1.3" stroke-linecap="round" stroke-linejoin="round"/>
<path d="M5.17893 14.059C5.90015 14.059 6.48481 13.4744 6.48481 12.7531C6.48481 12.0319 5.90015 11.4473 5.17893 11.4473C4.45771 11.4473 3.87305 12.0319 3.87305 12.7531C3.87305 13.4744 4.45771 14.059 5.17893 14.059Z" stroke="#373737" stroke-width="1.3" stroke-linecap="round" stroke-linejoin="round"/>
<path d="M13.0149 14.059C13.7361 14.059 14.3207 13.4744 14.3207 12.7531C14.3207 12.0319 13.7361 11.4473 13.0149 11.4473C12.2936 11.4473 11.709 12.0319 11.709 12.7531C11.709 13.4744 12.2936 14.059 13.0149 14.059Z" stroke="#373737" stroke-width="1.3" stroke-linecap="round" stroke-linejoin="round"/>
<path d="M3.08984 3.61133H14.4781C14.5546 3.61133 14.6302 3.62814 14.6995 3.66056C14.7688 3.69299 14.8301 3.74024 14.8791 3.79898C14.9281 3.85772 14.9637 3.92652 14.9832 4.0005C15.0027 4.07448 15.0057 4.15185 14.992 4.22712L14.1372 8.9283C14.1154 9.04866 14.0519 9.15752 13.958 9.2359C13.8641 9.31428 13.7456 9.35721 13.6233 9.35721H4.13455" stroke="#373737" stroke-width="1.3" stroke-linecap="round" stroke-linejoin="round"/>
</svg>
