<svg width="16" height="16" viewBox="0 0 16 16" fill="none" xmlns="http://www.w3.org/2000/svg">
<path d="M8 3.91667V5.08334" stroke="#373737" stroke-linecap="round" stroke-linejoin="round"/>
<path d="M8 10.9167V12.0833" stroke="#373737" stroke-linecap="round" stroke-linejoin="round"/>
<path d="M8 15C11.866 15 15 11.866 15 8C15 4.13401 11.866 1 8 1C4.13401 1 1 4.13401 1 8C1 11.866 4.13401 15 8 15Z" stroke="#373737" stroke-linecap="round" stroke-linejoin="round"/>
<path d="M6.25033 10.9167H8.87533C9.2621 10.9167 9.63303 10.763 9.90652 10.4895C10.18 10.216 10.3337 9.8451 10.3337 9.45833C10.3337 9.07155 10.18 8.70062 9.90652 8.42713C9.63303 8.15364 9.2621 8 8.87533 8H7.12533C6.73855 8 6.36762 7.84635 6.09413 7.57286C5.82064 7.29937 5.66699 6.92844 5.66699 6.54166C5.66699 6.15489 5.82064 5.78395 6.09413 5.51046C6.36762 5.23697 6.73855 5.08333 7.12533 5.08333H9.75033" stroke="#373737" stroke-linecap="round" stroke-linejoin="round"/>
</svg>
