<svg width="25" height="25" viewBox="0 0 25 25" fill="none" xmlns="http://www.w3.org/2000/svg">
<path d="M11.4521 5.08218L13.927 2.60731C14.9588 1.57744 16.3572 0.999324 17.8151 1C19.2729 1.00068 20.6708 1.58009 21.7016 2.61091C22.7324 3.64174 23.3118 5.03965 23.3125 6.49745C23.3132 7.95526 22.7351 9.3537 21.7052 10.3855L19.2303 12.8604" stroke="#0077B5" stroke-width="2" stroke-linecap="round" stroke-linejoin="round"/>
<path d="M12.8664 19.2243L10.3915 21.6992C9.88087 22.2105 9.27453 22.6161 8.6071 22.8929C7.93967 23.1697 7.22424 23.3123 6.50169 23.3125C5.77913 23.3127 5.06362 23.1706 4.39602 22.8942C3.72842 22.6178 3.12184 22.2125 2.61091 21.7016C2.09999 21.1907 1.69475 20.5841 1.41834 19.9165C1.14193 19.2489 0.999778 18.5334 1 17.8108C1.00022 17.0883 1.14282 16.3728 1.41963 15.7054C1.69645 15.038 2.10207 14.4317 2.6133 13.921L5.08818 11.4462" stroke="#0077B5" stroke-width="2" stroke-linecap="round" stroke-linejoin="round"/>
<path d="M7.91699 5.08221V2.25378" stroke="#0077B5" stroke-width="2" stroke-linecap="round" stroke-linejoin="round"/>
<path d="M5.08819 7.91058H2.25977" stroke="#0077B5" stroke-width="2" stroke-linecap="round" stroke-linejoin="round"/>
<path d="M19.2305 16.3959H22.0589" stroke="#0077B5" stroke-width="2" stroke-linecap="round" stroke-linejoin="round"/>
<path d="M16.4023 19.2243V22.0527" stroke="#0077B5" stroke-width="2" stroke-linecap="round" stroke-linejoin="round"/>
</svg>
