<svg width="16" height="18" viewBox="0 0 16 18" fill="none" xmlns="http://www.w3.org/2000/svg">
<path d="M14.4269 8.43997L2.27714 1.2213C2.1748 1.1605 2.05765 1.1273 1.93774 1.12512C1.81783 1.12293 1.69948 1.15184 1.59487 1.20888C1.49027 1.26591 1.40318 1.34901 1.34256 1.44962C1.28195 1.55023 1.25 1.66473 1.25 1.78133V16.2187C1.25 16.3353 1.28195 16.4498 1.34256 16.5504C1.40318 16.651 1.49027 16.7341 1.59487 16.7911C1.69948 16.8482 1.81783 16.8771 1.93774 16.8749C2.05765 16.8727 2.1748 16.8395 2.27714 16.7787L14.4269 9.56003C14.5256 9.5014 14.6072 9.41911 14.6637 9.32104C14.7203 9.22298 14.75 9.11243 14.75 9C14.75 8.88757 14.7203 8.77702 14.6637 8.67896C14.6072 8.58089 14.5256 8.4986 14.4269 8.43997Z" stroke="#373737" stroke-width="1.3" stroke-linecap="round" stroke-linejoin="round"/>
</svg>
