<svg width="16" height="16" viewBox="0 0 16 16" fill="none" xmlns="http://www.w3.org/2000/svg">
<path d="M7.99999 1H8C8.79565 1 9.55871 1.29266 10.1213 1.81359C10.6839 2.33453 11 3.04107 11 3.77778V8.22222C11 8.95894 10.6839 9.66547 10.1213 10.1864C9.55871 10.7073 8.79565 11 8 11H7.99999C7.60603 11 7.21592 10.9282 6.85195 10.7886C6.48797 10.649 6.15725 10.4444 5.87868 10.1864C5.6001 9.92847 5.37912 9.62225 5.22836 9.28524C5.0776 8.94822 5 8.58701 5 8.22223V3.77777C5 3.04106 5.31607 2.33452 5.87868 1.81359C6.44129 1.29266 7.20435 1 7.99999 1V1Z" stroke="#373737" stroke-linecap="round" stroke-linejoin="round"/>
<path d="M8 13V15" stroke="#373737" stroke-linecap="round" stroke-linejoin="round"/>
<path d="M13 9.00001C12.8624 10.1001 12.2764 11.1162 11.354 11.8541C10.4316 12.592 9.23748 13 8 13C6.76251 13 5.56843 12.592 4.64603 11.8541C3.72363 11.1162 3.13761 10.1001 3 9" stroke="#373737" stroke-linecap="round" stroke-linejoin="round"/>
</svg>
