<svg width="21" height="18" viewBox="0 0 21 18" fill="none" xmlns="http://www.w3.org/2000/svg">
<path d="M19.5403 8.93622L17.5581 9.96105L14.9918 4.87937L16.9942 3.8441C17.1447 3.76632 17.3186 3.75274 17.4787 3.80629C17.6387 3.85984 17.772 3.97622 17.8498 4.13039L19.8221 8.03581C19.8615 8.11391 19.8855 8.19934 19.8927 8.28712C19.8998 8.37491 19.89 8.46329 19.8638 8.54711C19.8376 8.63093 19.7954 8.70851 19.7399 8.77532C19.6844 8.84212 19.6165 8.89682 19.5403 8.93622V8.93622Z" stroke="#373737" stroke-width="1.3" stroke-linecap="round" stroke-linejoin="round"/>
<path d="M3.44296 9.87229L1.46073 8.84746C1.38452 8.80806 1.31667 8.75336 1.26113 8.68656C1.20559 8.61975 1.16347 8.54217 1.13724 8.45835C1.11101 8.37453 1.10119 8.28615 1.10835 8.19837C1.11551 8.11058 1.13951 8.02515 1.17894 7.94705L3.15118 4.04163C3.22903 3.88746 3.36232 3.77108 3.52235 3.71753C3.68238 3.66398 3.85635 3.67756 4.00679 3.75534L6.00921 4.7906L3.44296 9.87229Z" stroke="#373737" stroke-width="1.3" stroke-linecap="round" stroke-linejoin="round"/>
<path d="M17.5575 9.96126L16.2744 11.5134L13.3234 14.5647C13.2451 14.6457 13.1478 14.7044 13.041 14.735C12.9343 14.7655 12.8217 14.767 12.7142 14.7392L8.06635 13.5377C7.97918 13.5152 7.89755 13.474 7.82676 13.4168L3.44324 9.87239" stroke="#373737" stroke-width="1.3" stroke-linecap="round" stroke-linejoin="round"/>
<path d="M16.2748 11.5135L12.7463 8.85993L11.7198 9.65599C11.2755 10.0005 10.7353 10.1867 10.18 10.1867C9.62474 10.1867 9.08446 10.0005 8.64026 9.65599L8.20554 9.31886C8.132 9.26184 8.07118 9.18914 8.02718 9.10569C7.98319 9.02224 7.95704 8.92999 7.95053 8.83518C7.94401 8.74038 7.95727 8.64523 7.98942 8.55619C8.02156 8.46714 8.07183 8.38628 8.13682 8.31907L11.2752 5.07393C11.3348 5.01233 11.4055 4.96346 11.4834 4.93013C11.5612 4.89679 11.6446 4.87963 11.7289 4.87963H14.9917" stroke="#373737" stroke-width="1.3" stroke-linecap="round" stroke-linejoin="round"/>
<path d="M6.05475 4.79053L10.1704 3.54988C10.3174 3.50556 10.4749 3.51708 10.6144 3.58236L13.3866 4.87941" stroke="#373737" stroke-width="1.3" stroke-linecap="round" stroke-linejoin="round"/>
<path d="M9.21762 16.4887L6.80058 15.8639C6.7025 15.8385 6.6116 15.7896 6.53529 15.721L4.72668 14.0954" stroke="#373737" stroke-width="1.3" stroke-linecap="round" stroke-linejoin="round"/>
</svg>
