<svg width="16" height="16" viewBox="0 0 16 16" fill="none" xmlns="http://www.w3.org/2000/svg">
<path d="M8.31055 4.04102V7.68988" stroke="#373737" stroke-width="1.3" stroke-linecap="round" stroke-linejoin="round"/>
<path d="M11.4706 9.51388L8.31055 7.68945" stroke="#373737" stroke-width="1.3" stroke-linecap="round" stroke-linejoin="round"/>
<path d="M4.04072 5.53974H1V2.49902" stroke="#373737" stroke-width="1.3" stroke-linecap="round" stroke-linejoin="round"/>
<path d="M3.58013 12.4198C4.51569 13.3554 5.70766 13.9925 7.00531 14.2506C8.30296 14.5087 9.64801 14.3763 10.8704 13.87C12.0927 13.3636 13.1375 12.5062 13.8726 11.4061C14.6076 10.306 15 9.01266 15 7.68958C15 6.36651 14.6076 5.07315 13.8726 3.97305C13.1375 2.87296 12.0927 2.01554 10.8704 1.50922C9.64801 1.0029 8.30296 0.870423 7.00531 1.12854C5.70766 1.38666 4.51569 2.02378 3.58013 2.95934L1 5.53947" stroke="#373737" stroke-width="1.3" stroke-linecap="round" stroke-linejoin="round"/>
</svg>
