<svg width="16" height="16" viewBox="0 0 16 16" fill="none" xmlns="http://www.w3.org/2000/svg">
<path d="M1.97959 11.5713C1.10952 10.1046 0.804819 8.37071 1.12269 6.69523C1.44057 5.01974 2.35915 3.51793 3.70596 2.4718C5.05277 1.42566 6.73515 0.907165 8.43719 1.01367C10.1392 1.12018 11.7438 1.84437 12.9497 3.05025C14.1556 4.25612 14.8798 5.86074 14.9863 7.56278C15.0928 9.26482 14.5744 10.9472 13.5282 12.294C12.4821 13.6408 10.9803 14.5594 9.30481 14.8773C7.62932 15.1952 5.89542 14.8905 4.4287 14.0204L4.42871 14.0204L2.01004 14.7114C1.90997 14.74 1.80408 14.7413 1.70333 14.7152C1.60259 14.6891 1.51065 14.6365 1.43706 14.5629C1.36347 14.4893 1.3109 14.3974 1.28479 14.2967C1.25869 14.1959 1.26 14.09 1.28859 13.99L1.97964 11.5713L1.97959 11.5713Z" stroke="#373737" stroke-linecap="round" stroke-linejoin="round"/>
<path d="M8.00291 8.72632C8.40578 8.72632 8.73238 8.39973 8.73238 7.99685C8.73238 7.59398 8.40578 7.26738 8.00291 7.26738C7.60003 7.26738 7.27344 7.59398 7.27344 7.99685C7.27344 8.39973 7.60003 8.72632 8.00291 8.72632Z" fill="#373737"/>
<path d="M4.50096 8.72632C4.90383 8.72632 5.23043 8.39973 5.23043 7.99685C5.23043 7.59398 4.90383 7.26738 4.50096 7.26738C4.09808 7.26738 3.77148 7.59398 3.77148 7.99685C3.77148 8.39973 4.09808 8.72632 4.50096 8.72632Z" fill="#373737"/>
<path d="M11.5039 8.72632C11.9068 8.72632 12.2334 8.39973 12.2334 7.99685C12.2334 7.59398 11.9068 7.26738 11.5039 7.26738C11.101 7.26738 10.7744 7.59398 10.7744 7.99685C10.7744 8.39973 11.101 8.72632 11.5039 8.72632Z" fill="#373737"/>
</svg>
