<svg width="23" height="23" viewBox="0 0 23 23" fill="none" xmlns="http://www.w3.org/2000/svg">
<path d="M21.5354 11.0895L2.35243 1.77572C2.19105 1.69737 2.00593 1.66358 1.82181 1.67889C1.63769 1.6942 1.46335 1.75786 1.32208 1.86137C1.18081 1.96489 1.07935 2.10332 1.03125 2.25817C0.983157 2.41301 0.99072 2.5769 1.05293 2.72792L4.67126 11.5118C4.74183 11.6832 4.74183 11.8704 4.67126 12.0417L1.05293 20.8256C0.990719 20.9766 0.983157 21.1405 1.03125 21.2954C1.07935 21.4502 1.18081 21.5886 1.32208 21.6922C1.46335 21.7957 1.6377 21.8593 1.82181 21.8746C2.00593 21.8899 2.19105 21.8562 2.35244 21.7778L21.5354 12.464C21.6763 12.3956 21.7936 12.2959 21.8753 12.1751C21.957 12.0543 22 11.9168 22 11.7768C22 11.6367 21.957 11.4993 21.8753 11.3785C21.7936 11.2577 21.6763 11.1579 21.5354 11.0895Z" stroke="#0077B5" stroke-width="1.4" stroke-linecap="round" stroke-linejoin="round"/>
</svg>
