<svg width="16" height="16" viewBox="0 0 16 16" fill="none" xmlns="http://www.w3.org/2000/svg">
<path d="M14.25 10.25H1.75C1.40482 10.25 1.125 10.5298 1.125 10.875V14C1.125 14.3452 1.40482 14.625 1.75 14.625H14.25C14.5952 14.625 14.875 14.3452 14.875 14V10.875C14.875 10.5298 14.5952 10.25 14.25 10.25Z" stroke="#373737" stroke-width="1.3" stroke-linecap="round" stroke-linejoin="round"/>
<path d="M14.25 3.375H1.75C1.40482 3.375 1.125 3.65482 1.125 4V7.125C1.125 7.47018 1.40482 7.75 1.75 7.75H14.25C14.5952 7.75 14.875 7.47018 14.875 7.125V4C14.875 3.65482 14.5952 3.375 14.25 3.375Z" stroke="#373737" stroke-width="1.3" stroke-linecap="round" stroke-linejoin="round"/>
</svg>
