<svg width="16" height="16" viewBox="0 0 16 16" fill="none" xmlns="http://www.w3.org/2000/svg">
<path d="M7.99993 11.9315C10.1713 11.9315 11.9315 10.1713 11.9315 7.99994C11.9315 5.8286 10.1713 4.06837 7.99993 4.06837C5.82858 4.06837 4.06836 5.8286 4.06836 7.99994C4.06836 10.1713 5.82858 11.9315 7.99993 11.9315Z" stroke="#373737" stroke-width="1.3" stroke-linecap="round" stroke-linejoin="round"/>
<path d="M14.1782 7.43834L14.9018 6.35293C14.949 6.283 14.9801 6.20355 14.9931 6.12021C15.0061 6.03688 15.0006 5.95171 14.977 5.87074C14.8405 5.42122 14.6606 4.98603 14.4398 4.57134C14.3993 4.49752 14.3431 4.43354 14.2751 4.38397C14.207 4.33439 14.1289 4.30045 14.0462 4.28456L12.7658 4.02845L11.9715 3.23417L11.7154 1.9537C11.6995 1.87104 11.6656 1.7929 11.616 1.72487C11.5664 1.65684 11.5025 1.60059 11.4286 1.56015C11.0139 1.3394 10.5787 1.15951 10.1292 1.02301C10.0482 0.99938 9.96305 0.993866 9.87971 1.00686C9.79638 1.01985 9.71693 1.05103 9.647 1.09818L8.56166 1.82175H7.43835L6.353 1.09818C6.28307 1.05103 6.20362 1.01985 6.12029 1.00686C6.03695 0.993866 5.95178 0.99938 5.87082 1.02301C5.42129 1.15951 4.98609 1.3394 4.57138 1.56014C4.49755 1.60059 4.43356 1.65683 4.38399 1.72487C4.33441 1.7929 4.30046 1.87105 4.28458 1.95371L4.02853 3.2341L3.23418 4.02845L1.95378 4.2845C1.87111 4.30038 1.79298 4.33432 1.72495 4.3839C1.65691 4.43347 1.60067 4.49746 1.56022 4.57128C1.33944 4.986 1.15952 5.4212 1.023 5.87075C0.999378 5.95171 0.993866 6.03688 1.00686 6.12021C1.01985 6.20354 1.05103 6.28299 1.09819 6.35292L1.82175 7.43827V8.56158L1.09818 9.64693C1.05103 9.71686 1.01986 9.79631 1.00686 9.87964C0.993873 9.96297 0.999386 10.0481 1.02301 10.1291C1.15949 10.5786 1.33938 11.0139 1.56015 11.4286C1.60059 11.5024 1.65684 11.5664 1.72487 11.6159C1.7929 11.6655 1.87103 11.6995 1.9537 11.7154L3.23418 11.9715L4.02846 12.7657L4.28451 14.0462C4.3004 14.1289 4.33434 14.207 4.38391 14.2751C4.43348 14.3431 4.49747 14.3993 4.57129 14.4398C4.98598 14.6606 5.42117 14.8405 5.87071 14.9769C5.95166 15.0006 6.03683 15.0061 6.12015 14.9931C6.20348 14.9801 6.28292 14.9489 6.35285 14.9018L7.43828 14.1782H8.56158L9.647 14.9018C9.71693 14.949 9.79638 14.9801 9.87971 14.9931C9.96304 15.0061 10.0482 15.0006 10.1292 14.977C10.5787 14.8405 11.0139 14.6606 11.4286 14.4398C11.5024 14.3994 11.5664 14.3432 11.616 14.2751C11.6655 14.2071 11.6995 14.129 11.7154 14.0463L11.9715 12.7658L12.7657 11.9715L14.0462 11.7154C14.1289 11.6995 14.207 11.6656 14.2751 11.616C14.3431 11.5664 14.3993 11.5025 14.4398 11.4286C14.6606 11.0139 14.8405 10.5788 14.977 10.1292C15.0006 10.0483 15.0061 9.96311 14.9931 9.87977C14.9801 9.79644 14.949 9.71699 14.9018 9.64706L14.1782 8.56165V7.43834Z" stroke="#373737" stroke-width="1.3" stroke-linecap="round" stroke-linejoin="round"/>
</svg>
