<svg width="30" height="28" viewBox="0 0 30 28" fill="none" xmlns="http://www.w3.org/2000/svg">
<path d="M24.3412 21.2967H8.67401C8.43635 21.2967 8.20623 21.2133 8.02376 21.061C7.84129 20.9087 7.71806 20.6972 7.67555 20.4634L4.28826 1.83329C4.24575 1.59947 4.12252 1.38797 3.94005 1.23569C3.75759 1.08341 3.52746 1 3.2898 1H1" stroke="#0077B5" stroke-width="2" stroke-linecap="round" stroke-linejoin="round"/>
<path d="M9.11853 26.371C10.5197 26.371 11.6556 25.2351 11.6556 23.834C11.6556 22.4328 10.5197 21.2969 9.11853 21.2969C7.71734 21.2969 6.58145 22.4328 6.58145 23.834C6.58145 25.2351 7.71734 26.371 9.11853 26.371Z" stroke="#0077B5" stroke-width="2" stroke-linecap="round" stroke-linejoin="round"/>
<path d="M24.3413 26.371C25.7425 26.371 26.8784 25.2351 26.8784 23.834C26.8784 22.4328 25.7425 21.2969 24.3413 21.2969C22.9401 21.2969 21.8042 22.4328 21.8042 23.834C21.8042 25.2351 22.9401 26.371 24.3413 26.371Z" stroke="#0077B5" stroke-width="2" stroke-linecap="round" stroke-linejoin="round"/>
<path d="M5.05942 6.07422H27.1846C27.3332 6.07422 27.4801 6.10687 27.6147 6.16987C27.7493 6.23287 27.8685 6.32468 27.9637 6.4388C28.059 6.55292 28.128 6.68657 28.1659 6.83031C28.2038 6.97404 28.2097 7.12434 28.1831 7.27059L26.5224 16.4041C26.4799 16.6379 26.3567 16.8494 26.1742 17.0017C25.9917 17.154 25.7616 17.2374 25.524 17.2374H7.08908" stroke="#0077B5" stroke-width="2" stroke-linecap="round" stroke-linejoin="round"/>
</svg>
