<svg width="16" height="16" viewBox="0 0 16 16" fill="none" xmlns="http://www.w3.org/2000/svg">
<g clip-path="url(#clip0)">
<path d="M2.16602 10.1782V15.1666C2.16602 15.3213 2.22747 15.4697 2.33687 15.579C2.44627 15.6884 2.59464 15.7499 2.74935 15.7499H13.2493C13.4041 15.7499 13.5524 15.6884 13.6618 15.579C13.7712 15.4697 13.8327 15.3213 13.8327 15.1666V10.1783" stroke="#373737" stroke-linecap="round" stroke-linejoin="round"/>
<path d="M2.60668 2.91663H13.3933C13.5201 2.91663 13.6434 2.95792 13.7446 3.03426C13.8458 3.11059 13.9194 3.21782 13.9542 3.33971L15 6.99996H1L2.04579 3.33971C2.08061 3.21782 2.15419 3.11059 2.2554 3.03426C2.3566 2.95792 2.47991 2.91663 2.60668 2.91663Z" stroke="#373737" stroke-linecap="round" stroke-linejoin="round"/>
<path d="M5.66667 6.99992V8.16659C5.66667 8.78543 5.42083 9.37892 4.98325 9.81651C4.54566 10.2541 3.95217 10.4999 3.33333 10.4999C2.71449 10.4999 2.121 10.2541 1.68342 9.81651C1.24583 9.37892 1 8.78543 1 8.16659V6.99992" stroke="#373737" stroke-linecap="round" stroke-linejoin="round"/>
<path d="M10.3327 6.99992V8.16659C10.3327 8.78543 10.0868 9.37892 9.64926 9.81651C9.21168 10.2541 8.61819 10.4999 7.99935 10.4999C7.38051 10.4999 6.78702 10.2541 6.34943 9.81651C5.91185 9.37892 5.66602 8.78543 5.66602 8.16659V6.99992" stroke="#373737" stroke-linecap="round" stroke-linejoin="round"/>
<path d="M15.0007 6.99992V8.16659C15.0007 8.78543 14.7548 9.37892 14.3172 9.81651C13.8796 10.2541 13.2862 10.4999 12.6673 10.4999C12.0485 10.4999 11.455 10.2541 11.0174 9.81651C10.5798 9.37892 10.334 8.78543 10.334 8.16659V6.99992" stroke="#373737" stroke-linecap="round" stroke-linejoin="round"/>
</g>
<defs>
<clipPath id="clip0">
<rect width="16" height="16" fill="white"/>
</clipPath>
</defs>
</svg>
