<svg width="26" height="26" viewBox="0 0 26 26" fill="none" xmlns="http://www.w3.org/2000/svg">
<path d="M25.9238 13.3826C25.8481 13.5653 25.72 13.7215 25.5555 13.8314C25.3911 13.9413 25.1978 13.9999 25 13.9999H20V23.9999C19.9994 24.5302 19.7885 25.0385 19.4135 25.4135C19.0386 25.7884 18.5302 25.9993 18 25.9999H7.99998C7.46973 25.9993 6.96138 25.7884 6.58644 25.4135C6.21149 25.0385 6.00059 24.5302 5.99998 23.9999V13.9999H0.99998C0.802202 13.9999 0.608871 13.9413 0.44443 13.8314C0.279988 13.7215 0.151821 13.5653 0.0761323 13.3826C0.0004436 13.1999 -0.0193678 12.9988 0.0192027 12.8048C0.0577733 12.6108 0.152994 12.4327 0.292826 12.2928L12.2928 0.292785C12.4804 0.105312 12.7348 0 13 0C13.2652 0 13.5195 0.105312 13.7071 0.292785L25.7071 12.2928C25.847 12.4327 25.9422 12.6109 25.9807 12.8049C26.0193 12.9988 25.9995 13.1999 25.9238 13.3826Z" fill="white"/>
</svg>
