<svg width="18" height="18" viewBox="0 0 18 18" fill="none" xmlns="http://www.w3.org/2000/svg">
<path d="M16.6148 4.65382L9.69229 4.65382H9.19229V4.15382V0.692299C9.19229 0.654266 9.18101 0.617088 9.15987 0.585463C9.13875 0.553846 9.10872 0.529205 9.0736 0.514648C9.03844 0.500086 8.99975 0.496273 8.96242 0.503695C8.92513 0.511108 8.89087 0.5294 8.86396 0.556259C8.86393 0.556288 8.86391 0.556316 8.86388 0.556345L0.55636 8.86386L16.6148 4.65382ZM16.6148 4.65382C16.8495 4.65409 17.0745 4.74744 17.2404 4.91338C17.4063 5.07927 17.4997 5.30416 17.5 5.53876V12.4612M16.6148 4.65382L17.5 12.4612M17.5 12.4612C17.4997 12.6958 17.4063 12.9207 17.2404 13.0866C17.0745 13.2525 16.8495 13.3459 16.6148 13.3462H9.69229H9.19229V13.8462V17.3077C9.19229 17.3077 9.19229 17.3077 9.19229 17.3077C9.19227 17.3457 9.18099 17.3829 9.15986 17.4145C9.13873 17.4461 9.10869 17.4708 9.07354 17.4854C9.03839 17.4999 8.99972 17.5037 8.96241 17.4963C8.92512 17.4889 8.89086 17.4706 8.86396 17.4437C8.86395 17.4437 8.86393 17.4437 8.86392 17.4437L0.55636 9.13611C0.556324 9.13608 0.556288 9.13604 0.556252 9.136L17.5 12.4612Z" fill="#A2A2A2" stroke="black"/>
</svg>
