<svg width="18" height="18" viewBox="0 0 18 18" fill="none" xmlns="http://www.w3.org/2000/svg">
<path d="M9.26492 0.0526981C9.39142 0.105097 9.49953 0.193827 9.5756 0.307671C9.65168 0.421513 9.69228 0.555355 9.69229 0.692274V4.15382L16.6154 4.15382C16.9825 4.15424 17.3344 4.30026 17.594 4.55983C17.8536 4.81941 17.9996 5.17135 18 5.53844V12.4615C17.9996 12.8286 17.8536 13.1806 17.594 13.4401C17.3344 13.6997 16.9825 13.8457 16.6154 13.8462H9.69229V17.3077C9.69227 17.4446 9.65166 17.5785 9.57559 17.6923C9.49951 17.8062 9.39139 17.8949 9.26489 17.9473C9.13839 17.9997 8.99919 18.0134 8.8649 17.9867C8.7306 17.96 8.60724 17.8941 8.51041 17.7973L0.202698 9.48956C0.0729084 9.35969 0 9.1836 0 8.99999C0 8.81638 0.0729084 8.64029 0.202698 8.51042L8.51041 0.202705C8.60725 0.105907 8.73062 0.0399933 8.86492 0.0132942C8.99922 -0.0134068 9.13841 0.000307083 9.26492 0.0526981Z" fill="#0077B5"/>
</svg>
