<svg width="18" height="18" viewBox="0 0 18 18" fill="none" xmlns="http://www.w3.org/2000/svg">
<path d="M8.73508 17.9473C8.60858 17.8949 8.50047 17.8062 8.4244 17.6923C8.34832 17.5785 8.30772 17.4446 8.30771 17.3077V13.8462H1.38462C1.01752 13.8458 0.665585 13.6997 0.406009 13.4402C0.146434 13.1806 0.000419832 12.8287 0 12.4616V5.53846C0.000419832 5.17137 0.146434 4.81943 0.406009 4.55985C0.665585 4.30028 1.01752 4.15426 1.38462 4.15384H8.30771V0.692295C8.30773 0.555372 8.34834 0.421527 8.42441 0.307683C8.50049 0.193839 8.60861 0.105107 8.73511 0.0527071C8.86161 0.000307109 9.00081 -0.0134085 9.1351 0.0132942C9.2694 0.039997 9.39276 0.105919 9.48959 0.202726L17.7973 8.51044C17.9271 8.64031 18 8.8164 18 9.00001C18 9.18362 17.9271 9.35971 17.7973 9.48958L9.48959 17.7973C9.39275 17.8941 9.26938 17.96 9.13508 17.9867C9.00078 18.0134 8.86159 17.9997 8.73508 17.9473Z" fill="#0077B5"/>
</svg>
