<svg width="20" height="15" viewBox="0 0 20 15" fill="none" xmlns="http://www.w3.org/2000/svg">
<path d="M1.875 2.01923H11.875C12.538 2.01923 13.1739 2.29276 13.6428 2.77963C14.1116 3.2665 14.375 3.92684 14.375 4.61539V12.4038C14.375 12.576 14.3092 12.7411 14.1919 12.8628C14.0747 12.9845 13.9158 13.0529 13.75 13.0529H3.75C3.08696 13.0529 2.45107 12.7794 1.98223 12.2925C1.51339 11.8056 1.25 11.1453 1.25 10.4567V2.66827C1.25 2.49614 1.31585 2.33105 1.43306 2.20933C1.55027 2.08761 1.70924 2.01923 1.875 2.01923V2.01923Z" stroke="#373737" stroke-width="1.3" stroke-linecap="round" stroke-linejoin="round"/>
<path d="M14.375 6.23798L18.75 3.64183V11.4303L14.375 8.83414" stroke="#373737" stroke-width="1.3" stroke-linecap="round" stroke-linejoin="round"/>
</svg>
