<svg width="16" height="16" viewBox="0 0 16 16" fill="none" xmlns="http://www.w3.org/2000/svg">
<path d="M8.40423 13.8738L13.8757 8.47167C15.2201 7.14432 15.4184 4.96063 14.1462 3.56569C13.8275 3.21527 13.4398 2.93263 13.0069 2.73501C12.5739 2.5374 12.1047 2.42895 11.6279 2.41629C11.1511 2.40363 10.6766 2.48702 10.2335 2.66138C9.79042 2.83573 9.38795 3.0974 9.05066 3.4304L8.02227 4.44575L7.13436 3.5691C5.78998 2.24174 3.57826 2.04591 2.16542 3.30204C1.8105 3.61668 1.52423 3.99941 1.32408 4.42689C1.12393 4.85437 1.01409 5.31764 1.00127 5.78841C0.988447 6.25919 1.07291 6.72761 1.2495 7.1651C1.42609 7.60258 1.69111 7.99995 2.02839 8.33297L7.64031 13.8738C7.74161 13.9738 7.87901 14.03 8.02227 14.03C8.16553 14.03 8.30293 13.9738 8.40423 13.8738V13.8738Z" stroke="#373737" stroke-linecap="round" stroke-linejoin="round"/>
</svg>
