<svg width="16" height="16" viewBox="0 0 16 16" fill="none" xmlns="http://www.w3.org/2000/svg">
<path d="M14.4167 2.83331H1.58333C1.26117 2.83331 1 3.09448 1 3.41665V13.9166C1 14.2388 1.26117 14.5 1.58333 14.5H14.4167C14.7388 14.5 15 14.2388 15 13.9166V3.41665C15 3.09448 14.7388 2.83331 14.4167 2.83331Z" stroke="#373737" stroke-width="1.3" stroke-linecap="round" stroke-linejoin="round"/>
<path d="M1 5.16666H15" stroke="#373737" stroke-width="1.3" stroke-linecap="round" stroke-linejoin="round"/>
<path d="M10.9173 7.49997C10.9173 8.27352 10.61 9.01538 10.063 9.56236C9.51606 10.1093 8.7742 10.4166 8.00065 10.4166C7.2271 10.4166 6.48524 10.1093 5.93826 9.56236C5.39128 9.01538 5.08398 8.27352 5.08398 7.49997" stroke="#373737" stroke-width="1.3" stroke-linecap="round" stroke-linejoin="round"/>
</svg>
